<svg version="1.1" id="Layer_1" xmlns="http://www.w3.org/2000/svg" xmlns:xlink="http://www.w3.org/1999/xlink" x="0px" y="0px"
	 width="100%" viewBox="0 0 825 199" enable-background="new 0 0 825 199" xml:space="preserve">
<path fill="#FDFDFC" opacity="1.000000" stroke="none" 
	d="
M541.000000,200.000000 
	C360.710541,200.000000 180.921082,200.000000 1.065809,200.000000 
	C1.065809,133.726776 1.065809,67.453476 1.065809,1.090083 
	C276.000000,1.090083 551.000000,1.090083 825.965088,1.090083 
	C825.965088,67.412300 825.965088,133.706161 825.965088,200.000000 
	C731.120056,200.000000 636.310059,200.000000 541.000000,200.000000 
M369.945740,154.105850 
	C369.948090,152.294876 370.308105,150.380829 369.826416,148.709335 
	C369.507935,147.604111 367.981232,146.847076 366.535980,145.541534 
	C365.908325,146.189148 364.752686,146.822647 364.734955,147.486557 
	C364.561859,153.961075 364.555298,160.440857 364.604980,166.918335 
	C364.607727,167.278351 365.523956,167.631332 366.899384,168.140976 
	C369.585602,168.082916 372.271790,168.024841 375.568390,167.992737 
	C376.054810,167.655121 376.541260,167.317505 377.281036,167.578735 
	C379.108246,167.152206 381.658173,167.333878 382.625793,166.183990 
	C385.417175,162.866913 388.258148,162.740738 391.050079,166.183533 
	C391.964905,167.311600 393.754425,167.730377 395.143921,168.473511 
	C395.480835,168.032623 395.817719,167.591751 396.154633,167.150864 
	C394.007355,160.721619 391.940216,154.263306 389.628632,147.893707 
	C389.271423,146.909409 387.811157,145.759644 386.827789,145.728271 
	C385.853821,145.697205 384.290833,146.776154 383.930084,147.726517 
	C381.773590,153.407913 379.889893,159.192856 377.262604,165.162201 
	C376.590485,165.059464 375.918365,164.956741 374.777954,164.305450 
	C373.461365,163.929535 372.144806,163.553619 370.636810,162.318115 
	C370.406799,159.878204 370.176788,157.438278 369.945740,154.105850 
M568.159058,156.454285 
	C568.068420,157.514389 567.977722,158.574478 567.315430,160.162735 
	C566.255066,164.147049 568.190369,166.720551 571.698669,167.745255 
	C575.105042,168.740219 578.785461,168.689987 580.897461,165.004990 
	C582.881042,161.544128 582.378784,158.336731 579.065369,155.147934 
	C579.060791,154.493652 579.056152,153.839386 579.815674,153.078171 
	C582.969666,150.961609 582.885193,150.160950 579.018066,145.299301 
	C578.346741,145.190475 577.675476,145.081650 576.161621,144.983887 
	C569.097229,145.117493 567.803894,146.247055 566.546082,153.312561 
	C566.971924,153.896240 567.397766,154.479919 568.114441,155.306641 
	C568.114441,155.306641 568.252441,155.659653 568.159058,156.454285 
M503.884644,155.529739 
	C503.884247,154.612305 503.883850,153.694885 504.028595,152.023468 
	C503.128662,146.584732 500.495819,144.452194 495.372223,145.012024 
	C490.550934,145.538834 488.801147,148.398911 488.703796,155.911804 
	C488.594788,164.322281 490.202271,167.425446 495.016296,168.097824 
	C502.009552,169.074631 505.171692,164.830261 503.884644,155.529739 
M497.518341,39.908192 
	C492.866913,38.717010 492.606110,41.733459 494.468719,44.129791 
	C496.025757,46.132999 499.160217,47.462212 501.801514,47.929817 
	C505.053436,48.505524 507.434662,46.477425 508.416016,43.123764 
	C509.494995,39.436630 507.839783,37.050152 504.926117,34.456318 
	C504.954865,33.933868 504.983643,33.411423 505.783691,32.978760 
	C508.603149,33.179192 509.856018,31.579710 508.317078,29.433620 
	C506.929260,27.498281 504.505524,25.365612 502.363831,25.162390 
	C499.986572,24.936806 496.435394,26.131727 495.199066,27.940823 
	C493.984009,29.718786 494.599823,33.157906 495.260254,35.642704 
	C495.615082,36.977879 497.751160,37.839638 498.572021,39.463821 
	C498.424652,39.665840 498.277252,39.867855 497.518341,39.908192 
M566.119141,71.556252 
	C565.424744,73.243668 564.150818,74.922821 564.126648,76.619804 
	C563.910583,91.773933 564.059570,106.934052 563.760376,122.085678 
	C563.678162,126.247772 565.234924,127.184639 568.986694,127.134140 
	C572.573364,127.085854 575.051086,126.976288 574.858398,122.193939 
	C574.521362,113.827927 574.764465,105.438545 574.764465,97.058952 
	C576.436646,97.987122 577.101807,99.073677 577.758728,100.165161 
	C582.566345,108.152779 587.488953,116.074417 592.129944,124.157722 
	C594.476379,128.244705 598.208069,127.270767 601.384216,126.711380 
	C602.453674,126.523026 603.580261,123.113403 603.614441,121.157394 
	C603.876343,106.171104 603.768616,91.178413 604.024597,76.191948 
	C604.095581,72.034836 602.234131,71.077087 598.589355,71.140495 
	C595.183350,71.199760 592.696228,71.584404 592.916382,75.977417 
	C593.149536,80.627136 592.897949,85.300591 592.877930,89.963760 
	C592.861572,93.760345 592.874573,97.557053 592.874573,101.353706 
	C592.430481,101.407631 591.986328,101.461555 591.542236,101.515480 
	C586.516663,93.118553 581.295044,84.830338 576.550720,76.277390 
	C574.287170,72.196655 571.494080,70.350067 566.119141,71.556252 
M78.765068,118.888161 
	C78.660240,120.212875 78.418335,121.543579 78.475967,122.861183 
	C78.657822,127.018806 81.740227,127.458260 84.858116,127.439835 
	C87.918488,127.421745 90.549713,126.541145 90.494675,122.679497 
	C90.321861,110.551987 90.290092,98.419945 89.908974,86.298920 
	C89.700058,79.654724 86.839081,73.777626 80.239021,71.967033 
	C72.542213,69.855576 63.775867,68.524513 57.779835,75.287056 
	C54.561775,78.916512 52.908928,84.757240 52.396336,89.788284 
	C51.371834,99.843643 51.657150,110.029785 51.327435,120.159515 
	C51.100239,127.139374 51.696758,127.590454 58.495564,127.060066 
	C61.498180,126.825821 62.688869,125.640114 62.700565,122.806046 
	C62.710178,120.476326 62.831856,118.147308 62.872940,115.817436 
	C62.992142,109.058182 62.986431,109.018715 69.695000,109.085831 
	C80.022713,109.189156 78.826263,107.917679 78.765068,118.888161 
M532.718628,70.879250 
	C522.972473,71.576721 517.772461,76.392830 517.017395,86.801582 
	C516.200073,98.069458 516.209595,109.397163 515.851440,120.698547 
	C515.643250,127.267540 516.028687,127.262222 522.425049,127.107300 
	C527.945251,126.973610 526.862305,123.377640 526.946411,120.214828 
	C527.259399,108.444153 527.236572,108.557823 538.963562,109.025124 
	C542.327454,109.159180 543.325684,110.492439 543.106506,113.602737 
	C542.896362,116.586212 543.053101,119.593643 542.924622,122.585228 
	C542.738708,126.918129 545.722046,127.486427 548.871643,127.423058 
	C551.908447,127.361954 554.913025,127.073120 554.850586,122.614555 
	C554.699097,111.800987 555.046875,100.974670 554.652588,90.173233 
	C554.505615,86.146194 553.500427,81.862328 551.754211,78.241684 
	C548.095398,70.655251 540.861877,70.468758 532.718628,70.879250 
M449.183289,101.498817 
	C449.167847,108.155403 449.142456,114.811981 449.141632,121.468567 
	C449.141266,124.280106 448.617432,127.852394 452.976105,127.415970 
	C459.555237,126.757195 460.194092,127.294243 460.021515,121.322784 
	C459.930237,118.165413 460.039581,114.998863 460.156006,111.840057 
	C460.234406,109.713730 460.483612,107.593697 460.656403,105.470848 
	C461.313965,105.329506 461.971558,105.188156 462.629120,105.046814 
	C464.437653,108.997055 466.223297,112.957970 468.060455,116.894852 
	C470.370239,121.844429 473.146545,126.219749 479.147217,127.409721 
	C483.067047,128.187042 486.369415,127.642708 487.591309,123.520218 
	C488.780579,119.507759 485.409851,118.910049 482.754272,117.008575 
	C479.296204,114.532471 477.069489,110.128174 474.963989,106.204300 
	C474.660217,105.638206 477.828552,102.905807 479.666290,101.550278 
	C485.333862,97.369911 487.648315,90.801376 485.810791,83.391930 
	C484.095306,76.474762 480.088074,72.924141 472.326080,72.203873 
	C467.219696,71.730026 462.048187,72.008408 456.915436,71.755470 
	C449.825439,71.406082 449.260498,71.793015 449.169952,79.035866 
	C449.080536,86.189194 449.152191,93.344543 449.183289,101.498817 
M806.439575,76.008347 
	C797.385681,69.576057 787.093201,71.339088 777.071045,71.830482 
	C776.045349,71.880768 774.328491,74.398766 774.305054,75.794647 
	C774.040771,91.582184 773.947266,107.375481 774.152832,123.162735 
	C774.170166,124.489746 776.613647,126.824219 778.040222,126.912735 
	C783.996521,127.282303 790.020325,127.296371 795.971680,126.831177 
	C803.722778,126.225319 810.211487,120.893158 810.832825,113.698227 
	C811.613831,104.653854 811.569641,95.483337 811.070679,86.411865 
	C810.885742,83.049850 808.403931,79.814178 806.439575,76.008347 
M290.107727,101.488297 
	C289.959900,96.331146 290.164032,91.134087 289.584839,86.025841 
	C288.626495,77.573410 282.132355,71.555473 274.063232,71.010437 
	C261.628174,70.170479 255.255035,73.734978 252.926819,83.705437 
	C250.475128,94.204720 250.504272,104.920166 252.958359,115.410263 
	C255.285080,125.355965 261.701050,128.890427 274.152161,128.008575 
	C282.502380,127.417191 288.744659,121.259720 289.686005,112.455841 
	C290.039154,109.152992 289.987488,105.806854 290.107727,101.488297 
M112.146881,71.232208 
	C108.945572,73.147896 104.864662,74.369400 102.704422,77.106689 
	C95.629448,86.071556 98.399025,96.535515 108.696465,101.531830 
	C112.730812,103.489304 117.199455,104.637939 121.017586,106.914291 
	C122.649872,107.887451 124.243690,111.085411 123.819603,112.755646 
	C123.372231,114.517578 120.670120,116.489037 118.648567,116.911301 
	C114.015388,117.879089 111.228821,115.378632 109.954689,110.781357 
	C109.038826,107.476776 104.773354,106.103096 100.840851,107.441689 
	C97.457390,108.593391 98.180046,111.206139 98.688576,113.664726 
	C100.681755,123.301193 106.696121,128.063095 116.749237,128.028107 
	C128.107407,127.988579 134.249695,123.391594 135.769119,113.793335 
	C137.163544,104.984718 133.051727,99.342590 122.596992,95.553505 
	C119.472488,94.421104 116.183563,93.450996 113.439087,91.679672 
	C111.983910,90.740486 110.491768,87.946640 110.895233,86.522240 
	C111.402725,84.730484 113.627960,82.612656 115.474388,82.179199 
	C119.520233,81.229446 122.963699,82.585411 124.649269,87.010674 
	C125.964973,90.464890 130.271729,92.043358 134.036591,90.589012 
	C138.002396,89.057045 136.452728,85.877113 135.716354,83.349319 
	C133.722061,76.503578 129.123672,72.211372 121.990005,71.189880 
	C119.055450,70.769669 116.008522,71.134201 112.146881,71.232208 
M389.895752,121.231262 
	C396.046631,108.497688 393.017639,100.695770 380.032043,95.760078 
	C376.925140,94.579193 373.533844,93.776268 370.870361,91.935593 
	C369.225189,90.798668 367.564575,87.727760 368.000000,86.075684 
	C368.453735,84.354240 371.267242,82.498016 373.315613,82.110718 
	C377.614655,81.297859 380.537781,83.498940 381.890625,87.848175 
	C383.339722,92.506683 387.401184,90.694130 390.374939,90.515381 
	C391.454681,90.450485 393.272614,87.823914 393.229675,86.412544 
	C393.005493,79.047974 387.058289,72.690941 379.608154,71.240944 
	C369.389496,69.252106 361.201508,72.514732 357.774719,79.940781 
	C353.637390,88.906647 356.274353,96.845573 365.137390,101.256714 
	C369.442932,103.399582 374.177795,104.727432 378.333496,107.098610 
	C379.839355,107.957817 381.222046,111.010399 380.847198,112.646599 
	C380.451599,114.373207 378.085358,116.466904 376.238892,116.881714 
	C371.584106,117.927452 368.169189,116.040276 366.987762,110.974770 
	C365.738068,105.616592 361.354401,107.024895 358.031372,107.509537 
	C354.160431,108.074074 355.210541,111.381073 355.742218,113.936058 
	C357.132111,120.615440 360.617401,125.924812 367.556946,127.311554 
	C375.510590,128.900940 383.589355,129.322922 389.895752,121.231262 
M707.738647,72.416527 
	C692.755371,67.862640 682.467102,72.499802 680.710754,85.866539 
	C679.512390,94.986771 679.641968,104.520103 680.827942,113.654472 
	C682.303040,125.015182 688.809814,128.794693 701.937439,128.010529 
	C710.750793,127.484070 717.325867,120.775467 717.789795,111.148613 
	C718.158020,103.507072 718.105408,95.826012 717.821167,88.178055 
	C717.571167,81.449341 714.705933,75.987450 707.738647,72.416527 
M764.606750,113.745216 
	C764.698547,105.096771 765.187317,96.429436 764.777100,87.804871 
	C764.311096,78.007408 757.849060,71.613007 748.875061,71.011215 
	C735.924316,70.142746 729.245789,74.052193 727.918762,85.461464 
	C726.799561,95.084091 727.163269,105.023926 728.197205,114.681320 
	C728.613342,118.568275 731.741760,123.308167 735.061218,125.531509 
	C746.019165,132.870850 760.394348,127.140923 764.606750,113.745216 
M215.102753,127.061226 
	C220.659241,126.699684 218.613800,122.403984 218.814850,119.509514 
	C219.054321,116.061867 216.342728,116.213943 213.940918,116.212311 
	C210.447784,116.209930 206.954697,116.148964 203.461533,116.140755 
	C196.568405,116.124557 196.568588,116.132439 196.634155,109.016472 
	C196.638748,108.517456 196.683670,108.013351 196.630554,107.520149 
	C196.317398,104.613182 197.779114,103.782944 200.470322,103.855461 
	C204.958023,103.976372 209.454376,103.760452 213.943115,103.861977 
	C219.591858,103.989738 217.825058,99.558006 218.336426,96.704765 
	C218.928528,93.400978 216.685638,92.916740 214.013641,92.951851 
	C209.523651,93.010857 205.026810,92.769897 200.541809,92.920967 
	C196.187286,93.067650 197.001358,90.078552 196.844513,87.493317 
	C196.672577,84.659142 197.009293,82.648651 200.721619,82.843010 
	C205.532761,83.094902 210.367493,82.857567 215.190247,82.938942 
	C218.640030,82.997147 218.904099,80.711044 218.704910,78.240387 
	C218.514221,75.875061 220.184814,72.214645 215.885757,72.060295 
	C207.087769,71.744423 198.275558,71.812126 189.469009,71.753052 
	C186.698090,71.734459 185.823318,73.284805 185.808212,75.920883 
	C185.718643,91.552216 185.585098,107.183960 185.319458,122.813080 
	C185.263351,126.114700 186.530075,127.194542 189.722366,127.133911 
	C197.870697,126.979172 206.023407,127.056206 215.102753,127.061226 
M412.588867,85.741798 
	C412.443878,82.592308 412.153687,79.441055 412.192017,76.293800 
	C412.236328,72.656311 410.260040,71.726738 407.104675,71.873413 
	C404.073792,72.014297 400.767273,71.623787 401.073181,76.300293 
	C401.474487,82.435783 401.143768,88.725128 402.445526,94.659264 
	C403.344360,98.756767 405.562378,104.093704 408.810089,105.806427 
	C414.363312,108.735001 414.762451,112.545555 414.445862,117.504654 
	C414.340057,119.161613 414.488892,120.833717 414.412170,122.493851 
	C414.252167,125.956451 415.555603,127.788422 419.321747,127.671242 
	C422.838745,127.561829 425.702148,127.046448 425.640961,122.594223 
	C425.592957,119.101402 425.350677,115.568321 425.796356,112.131142 
	C425.996582,110.587120 427.350525,108.535049 428.723328,107.915642 
	C434.373688,105.366150 438.021240,101.118988 438.882141,95.228706 
	C439.764771,89.189545 439.302612,82.966324 439.884216,76.867065 
	C440.435852,71.081985 436.471069,72.033775 433.127960,71.687675 
	C429.207275,71.281769 428.890808,73.674225 428.812408,76.677330 
	C428.682373,81.659096 428.566406,86.670387 427.924042,91.601433 
	C427.279083,96.552208 424.659790,98.264244 419.598480,98.203354 
	C414.841309,98.146126 413.347870,95.141533 412.878815,91.131172 
	C412.705231,89.646866 412.697235,88.143181 412.588867,85.741798 
M667.157288,71.964600 
	C659.515503,71.813026 651.871887,71.721085 644.232727,71.483566 
	C640.657349,71.372398 638.698059,72.310997 638.700562,76.482178 
	C638.709778,91.774780 638.470520,107.068169 638.231506,122.359795 
	C638.183716,125.411751 638.549805,127.847748 642.424011,127.379890 
	C645.793335,126.973000 649.775391,127.353447 649.477295,121.954216 
	C649.221924,117.328499 649.314514,112.684433 649.114929,108.054443 
	C648.990784,105.173950 649.912109,103.739273 653.071045,103.855225 
	C657.553772,104.019775 662.057129,103.677643 666.535522,103.891205 
	C671.661621,104.135658 670.747375,100.584351 671.074341,97.512772 
	C671.453735,93.948082 670.015198,92.789597 666.557129,92.919006 
	C661.129333,93.122116 655.688477,92.972923 650.086914,92.972923 
	C650.086914,89.294518 650.086914,86.395973 650.086914,82.897751 
	C655.838318,82.897751 661.280640,82.808609 666.717896,82.936432 
	C669.325378,82.997726 671.724792,82.742371 671.490662,79.524689 
	C671.286926,76.725945 673.877014,72.332275 667.157288,71.964600 
M298.887604,109.498268 
	C298.890808,113.824875 298.993683,118.154518 298.861603,122.476997 
	C298.775818,125.284561 299.070557,127.807137 302.628662,127.372726 
	C305.774231,126.988686 310.160095,127.999664 309.917450,122.317558 
	C309.718872,117.666931 310.024567,112.991776 309.752533,108.348236 
	C309.542908,104.770172 310.929718,103.674164 314.364410,103.842422 
	C318.845459,104.061966 323.349670,103.931778 327.839905,103.807350 
	C332.536530,103.677208 331.445618,100.000824 331.737610,97.183327 
	C332.042633,94.240189 330.875885,92.865211 327.795593,92.942589 
	C323.639038,93.046989 319.466370,92.722466 315.319519,92.940659 
	C311.633270,93.134628 309.857086,92.276779 309.982117,88.036240 
	C310.093140,84.270645 310.918488,82.506172 315.050934,82.833153 
	C319.185303,83.160309 323.380463,82.686447 327.521912,82.965645 
	C332.247620,83.284218 331.873901,80.249695 332.046906,77.138840 
	C332.231049,73.827347 331.773987,71.802818 327.621643,71.877464 
	C319.979340,72.014832 312.326630,71.693153 304.680908,71.472221 
	C300.752319,71.358696 298.983612,72.847504 299.038940,77.050064 
	C299.176941,87.530609 298.959137,98.015839 298.887604,109.498268 
M154.813400,110.017761 
	C154.818176,114.163528 155.009293,118.319939 154.773331,122.451958 
	C154.554016,126.292824 156.147583,127.403038 159.789932,127.114586 
	C163.067902,126.854996 166.062103,127.295631 165.961884,122.324852 
	C165.747299,111.680756 166.005630,101.027306 166.055481,90.377617 
	C166.089920,83.018661 165.149918,82.620918 173.225754,83.071114 
	C177.657455,83.318153 177.982727,80.848892 177.995758,77.443100 
	C178.008850,74.026703 177.669724,71.659332 173.248596,71.789749 
	C164.602631,72.044777 155.941986,72.027260 147.293060,71.848907 
	C143.681992,71.774445 142.741364,73.263527 142.778687,76.593880 
	C142.848007,82.781837 142.821320,83.208237 149.151718,82.841370 
	C154.164062,82.550888 155.399384,84.405632 155.085876,89.139709 
	C154.646957,95.767532 154.943604,102.444084 154.813400,110.017761 
M21.950609,121.336006 
	C21.744699,124.779884 21.788334,127.412216 26.795353,127.211266 
	C31.438057,127.024933 33.240856,125.888908 33.103348,120.927269 
	C32.799088,109.948753 33.277821,98.949966 33.062069,87.966820 
	C32.982288,83.905449 34.379028,82.470901 38.230549,82.984978 
	C39.049160,83.094246 39.897678,82.958641 40.725258,83.025047 
	C45.458271,83.404785 44.956352,80.119095 45.092983,77.053383 
	C45.240730,73.738312 44.664577,71.675682 40.563187,71.790077 
	C31.911781,72.031395 23.247770,72.007957 14.593179,71.854179 
	C11.197039,71.793831 9.837147,72.839424 9.887043,76.400543 
	C9.974127,82.615822 10.053165,83.183807 16.181168,82.842430 
	C20.951832,82.576668 22.448139,83.988518 22.226192,88.921387 
	C21.755201,99.389259 21.995070,109.889114 21.950609,121.336006 
M570.369995,24.110830 
	C559.426147,16.401148 547.916260,16.038359 539.115601,23.428555 
	C537.077881,25.139702 535.743530,27.688469 534.085510,29.851803 
	C534.423340,30.307314 534.761230,30.762825 535.099060,31.218336 
	C545.810059,23.890011 556.500000,22.256474 566.776367,31.222679 
	C572.079834,35.849991 574.329529,43.588272 572.432556,48.812649 
	C570.403870,46.156738 568.392517,43.523628 566.381226,40.890514 
	C565.937012,41.129429 565.492737,41.368343 565.048523,41.607254 
	C564.186035,50.328316 568.052490,57.883797 571.360962,66.265739 
	C577.606079,59.858009 584.480042,54.935204 587.693359,47.085606 
	C587.369446,46.693897 587.045532,46.302189 586.721619,45.910484 
	C584.390015,46.696705 582.058411,47.482925 579.638428,48.298954 
	C579.656982,36.080250 578.000916,31.663643 570.369995,24.110830 
M314.600677,160.024277 
	C308.408325,159.975296 301.991882,158.040512 295.035889,162.171097 
	C298.891968,164.082611 301.730927,165.489929 305.101410,167.160721 
	C303.895813,167.641708 303.209595,168.038025 302.472809,168.191422 
	C286.476105,171.521683 273.442047,158.465637 276.410919,142.093658 
	C276.829315,139.786331 277.327087,137.493362 277.920197,134.535049 
	C270.689148,138.937317 267.640778,148.151154 270.996948,157.190384 
	C272.767273,161.958344 275.979614,166.746796 279.801697,170.080429 
	C287.570862,176.856781 297.012665,176.999588 306.632355,173.242493 
	C306.380035,176.487396 306.197845,178.830551 305.906494,182.577789 
	C314.045837,176.490295 317.030670,168.762939 321.285431,160.938995 
	C318.928162,160.586197 317.190857,160.326187 314.600677,160.024277 
M507.002686,84.519463 
	C506.995789,81.694618 506.798676,78.854362 507.026215,76.048523 
	C507.372955,71.772316 505.011047,71.119011 501.501434,71.130219 
	C498.003021,71.141388 495.890045,71.784592 495.923828,76.059586 
	C496.045868,91.511055 496.029114,106.967979 495.716736,122.415817 
	C495.625092,126.946457 497.900970,127.059761 501.254425,127.123566 
	C504.735168,127.189804 506.881744,126.785217 506.828735,122.400078 
	C506.680145,110.107231 506.920685,97.809677 507.002686,84.519463 
M359.663818,25.600718 
	C359.077301,26.496536 357.838684,27.545338 358.007294,28.263988 
	C359.371185,34.077694 360.911469,39.855782 362.629364,45.575230 
	C362.931885,46.582405 364.426880,48.030533 365.172058,47.920952 
	C366.330322,47.750629 367.726105,46.628887 368.289825,45.533901 
	C369.351562,43.471600 369.891846,41.140827 370.648865,38.921654 
	C372.069885,41.282570 372.217834,43.482090 373.125977,45.302338 
	C373.731171,46.515312 375.317627,47.604759 376.664886,47.935917 
	C377.402100,48.117123 379.143799,46.781994 379.425293,45.832115 
	C381.337952,39.378696 382.982239,32.845741 384.890381,25.672449 
	C376.601776,25.744989 380.218292,33.752766 376.126953,36.447529 
	C375.352875,33.626556 374.819550,30.855896 373.782501,28.288746 
	C373.333649,27.177608 371.940155,26.017447 370.792786,25.785778 
	C370.138031,25.653570 368.731049,27.200068 368.333313,28.245739 
	C367.347839,30.836803 366.747894,33.574512 365.993073,36.253311 
	C364.432007,34.547836 364.052643,32.657467 363.297607,30.931412 
	C362.496002,29.098879 361.337982,27.422256 359.663818,25.600718 
M541.767578,160.292038 
	C541.822754,161.618851 541.579468,163.053711 542.010498,164.244461 
	C542.520996,165.654770 543.612854,166.854599 544.452759,168.145660 
	C545.194946,166.917068 546.526123,165.711960 546.576172,164.455795 
	C546.781067,159.314423 546.682922,154.154053 546.483032,149.008972 
	C546.440125,147.905716 545.507935,146.836990 544.985413,145.752350 
	C543.767273,146.360809 542.159729,146.668457 541.410156,147.638870 
	C539.726440,149.818558 538.468689,152.327225 536.700867,155.260605 
	C534.878540,152.103943 533.536133,149.475311 531.870972,147.070145 
	C531.336853,146.298584 529.858521,145.642715 528.981140,145.811584 
	C528.237183,145.954803 527.238525,147.346146 527.208923,148.214432 
	C527.010620,154.025314 526.947815,159.846466 527.098633,165.657608 
	C527.121582,166.541580 528.480103,167.390869 529.220886,168.256226 
	C530.036560,167.406708 531.432495,166.633209 531.555664,165.692978 
	C531.884888,163.179825 531.667847,160.595093 531.667847,156.620972 
	C533.996338,159.561218 535.320801,161.233688 536.496765,162.718613 
	C538.433289,161.411636 539.819153,160.476334 541.767578,160.292038 
M291.988922,27.974482 
	C291.940094,33.286583 291.738922,38.604584 291.944183,43.906857 
	C291.998962,45.322479 293.296906,46.689976 294.024139,48.079571 
	C294.860443,46.627972 296.066193,45.263733 296.435516,43.701721 
	C296.856842,41.919685 296.532990,39.961456 296.532990,38.079800 
	C299.542267,40.692200 301.197876,43.671017 303.187164,46.407242 
	C303.825806,47.285675 305.454529,48.071079 306.426575,47.877281 
	C307.172394,47.728580 308.050751,45.992599 308.090637,44.933189 
	C308.296661,39.461227 308.375732,33.975487 308.185150,28.505493 
	C308.148804,27.462067 306.701965,26.467785 305.905884,25.450825 
	C305.156067,26.493336 303.983032,27.448744 303.746735,28.596947 
	C303.290436,30.814032 303.362793,33.139927 303.216003,35.420708 
	C300.464264,32.858597 298.918060,30.159233 297.199036,27.574808 
	C295.734131,25.372383 294.028137,23.883776 291.988922,27.974482 
M459.599091,146.671585 
	C459.477539,152.807892 459.247986,158.945786 459.338867,165.078949 
	C459.354340,166.122330 460.743805,167.145355 461.498444,168.177780 
	C462.287659,167.198639 463.599548,166.297119 463.758881,165.224426 
	C464.106018,162.887512 463.866089,160.463394 463.866089,158.074905 
	C464.275024,157.974350 464.683960,157.873795 465.092896,157.773224 
	C466.865112,160.658188 468.513275,163.632050 470.480316,166.377426 
	C471.123291,167.274811 472.670654,168.115997 473.664795,167.977905 
	C474.424530,167.872375 475.477905,166.203384 475.516724,165.195801 
	C475.734039,159.557709 475.781891,153.906509 475.625641,148.267044 
	C475.599548,147.324875 474.288513,146.418304 473.571259,145.495285 
	C472.702301,146.429138 471.360443,147.235352 471.066437,148.324448 
	C470.517517,150.358032 470.577148,152.555908 470.383575,154.685440 
	C467.666046,152.547638 466.492920,149.979324 464.687836,147.982178 
	C463.657318,146.842010 461.596893,146.632690 459.599091,146.671585 
M333.162842,29.783396 
	C333.162842,31.660582 333.162842,33.537769 333.162842,35.414955 
	C332.706177,35.505672 332.249512,35.596390 331.792847,35.687111 
	C330.009796,32.814072 328.357056,29.845884 326.368439,27.123003 
	C325.729309,26.247883 324.215820,25.691469 323.078949,25.651241 
	C322.598999,25.634260 321.642456,27.315519 321.613800,28.246737 
	C321.440155,33.888729 321.356293,39.540901 321.543884,45.179642 
	C321.577026,46.174732 323.031036,47.122547 323.828888,48.092194 
	C324.549744,47.034779 325.716888,46.047062 325.895264,44.904922 
	C326.229584,42.764275 325.991486,40.534225 325.991486,38.341362 
	C326.465088,38.258385 326.938721,38.175404 327.412323,38.092422 
	C329.046204,40.719257 330.532623,43.457001 332.384705,45.919716 
	C333.152618,46.940750 334.702606,47.373604 335.896942,48.073967 
	C336.502045,46.908588 337.578522,45.763866 337.630646,44.574242 
	C337.855865,39.434372 337.924866,34.275444 337.713074,29.137360 
	C337.661285,27.881004 336.332458,26.677286 335.590759,25.449383 
	C334.786774,26.611090 333.982758,27.772799 333.162842,29.783396 
M277.226196,41.458355 
	C277.785553,41.332901 278.701752,40.932590 278.849396,41.124264 
	C280.428253,43.174088 281.591827,45.664196 283.504059,47.284435 
	C284.415955,48.057121 286.687439,47.225250 288.343079,47.120186 
	C287.749695,46.023018 287.364410,44.719921 286.522186,43.869041 
	C284.380981,41.705776 282.650818,40.173164 285.939972,37.082600 
	C287.534454,35.584396 288.132721,31.823242 287.500641,29.555149 
	C287.031403,27.871315 283.982849,26.603226 281.840424,25.788055 
	C280.230927,25.175663 278.106750,25.154852 276.453125,25.660355 
	C275.130341,26.064711 273.268280,27.605156 273.202637,28.732080 
	C272.875092,34.354321 272.930511,40.012547 273.188934,45.642605 
	C273.235291,46.652512 274.866516,47.589676 275.765991,48.560425 
	C276.214203,48.252895 276.662445,47.945366 277.110657,47.637836 
	C277.110657,45.831795 277.110657,44.025757 277.226196,41.458355 
M397.143799,33.638599 
	C397.162720,36.123077 396.967438,38.633247 397.261536,41.084705 
	C397.547791,43.470711 398.335205,45.796589 398.902557,48.148876 
	C400.290192,46.231785 401.677826,44.314690 403.290863,42.086201 
	C405.888123,43.385185 406.408844,50.116611 412.707977,47.366436 
	C410.923828,44.629063 409.267120,42.087170 407.429474,39.267715 
	C411.957458,36.638588 413.881042,32.965355 411.353821,28.676762 
	C408.683929,24.146008 403.623291,25.277927 399.558258,25.751200 
	C395.326660,26.243858 397.828094,30.283270 397.143799,33.638599 
M477.033630,32.286331 
	C476.994507,34.444195 476.874664,36.604126 476.929840,38.759575 
	C477.213531,49.839756 474.783142,47.982975 486.868073,48.031494 
	C488.136749,48.036587 489.410583,46.748726 490.682037,46.060738 
	C489.400024,45.210308 488.217804,44.055996 486.808472,43.593376 
	C485.346130,43.113331 483.664001,43.302914 481.777222,43.180058 
	C481.909241,41.520153 482.007935,40.279274 482.130920,38.732826 
	C484.243774,38.732826 486.112549,39.008095 487.835510,38.625977 
	C488.814362,38.408886 489.554565,37.115891 490.402222,36.307446 
	C489.531342,35.551418 488.774261,34.531273 487.764984,34.096413 
	C485.883484,33.285713 483.855347,32.815426 481.888214,32.203468 
	C483.935822,31.541883 486.016388,30.964483 488.016632,30.181797 
	C488.961761,29.811981 489.968475,29.199749 490.526306,28.402702 
	C490.821198,27.981319 490.264923,26.278389 490.005035,26.257679 
	C486.238922,25.957594 482.422638,25.531998 478.709991,25.950031 
	C477.963562,26.034075 477.597137,29.492912 477.033630,32.286331 
M341.661530,44.853733 
	C341.780579,50.771370 346.294373,47.696171 348.728333,47.909801 
	C350.836975,48.094883 354.533051,50.029854 354.992401,45.758095 
	C355.049805,45.224239 351.107544,44.417553 349.161896,43.449257 
	C348.077942,42.909798 347.289856,41.775822 346.368439,40.909771 
	C347.261414,40.194481 348.060547,39.250141 349.076111,38.834187 
	C349.934906,38.482452 351.191925,39.049652 352.007019,38.657684 
	C353.130157,38.117626 354.003235,37.057617 354.983429,36.220341 
	C354.073761,35.497269 353.257477,34.575344 352.233917,34.094891 
	C350.422485,33.244648 348.485077,32.662891 346.600372,31.968779 
	C348.591705,31.380642 350.640228,30.931839 352.551270,30.147991 
	C353.569550,29.730324 354.350128,28.733248 355.238007,27.997679 
	C354.404602,27.211971 353.646332,25.873028 352.723206,25.747625 
	C350.269775,25.414324 347.739258,25.705137 345.250580,25.558332 
	C342.700409,25.407896 341.651917,26.356461 341.711426,28.995544 
	C341.823975,33.984898 341.689972,38.979816 341.661530,44.853733 
M246.497498,33.979862 
	C244.771255,33.438477 243.045013,32.897087 241.318771,32.355698 
	C243.045990,31.648108 244.767120,30.924900 246.506378,30.248266 
	C246.796738,30.135302 247.289642,30.363737 247.477264,30.196671 
	C248.332565,29.435114 249.112289,28.588690 249.919174,27.772757 
	C249.179733,27.058559 248.487686,25.796612 247.692383,25.727804 
	C244.719482,25.470600 241.701691,25.459286 238.726135,25.687346 
	C237.928131,25.748508 236.587204,26.970215 236.569550,27.685642 
	C236.403687,34.409180 236.471039,41.138477 236.471039,48.129398 
	C239.525101,48.129398 241.874100,48.397427 244.127808,48.049072 
	C246.119995,47.741142 249.604568,46.863529 249.665253,46.034950 
	C249.944519,42.221432 246.557846,43.953857 244.587906,43.497826 
	C244.270920,43.424450 243.816467,43.612686 243.610794,43.448277 
	C242.717941,42.734470 241.893723,41.934826 241.044556,41.166370 
	C241.861053,40.376316 242.552383,39.273335 243.528702,38.882816 
	C244.537308,38.479393 245.883179,38.987709 246.969299,38.689087 
	C247.939148,38.422432 248.755951,37.599163 249.640289,37.021507 
	C248.872940,36.017197 248.105591,35.012886 246.497498,33.979862 
M444.790710,151.654999 
	C444.782257,150.824036 445.022003,149.883301 444.713257,149.185120 
	C444.088196,147.771667 443.165833,146.489685 442.366028,145.153473 
	C441.536224,146.475357 440.048248,147.773392 439.999329,149.123566 
	C439.849640,153.256516 439.983185,157.444046 440.509216,161.545883 
	C441.163635,166.649078 443.653900,168.457611 448.637024,168.185883 
	C453.316650,167.930695 455.489624,165.099442 455.781403,160.777435 
	C456.027100,157.138092 455.912384,153.466965 455.806061,149.814301 
	C455.749451,147.868988 456.755432,144.763153 453.250488,145.290466 
	C452.242462,145.442123 451.180603,148.398178 450.991577,150.159470 
	C450.621765,153.604706 451.071869,157.138489 450.693481,160.581879 
	C450.580261,161.612228 448.866669,163.156769 447.842773,163.191711 
	C446.925415,163.223038 445.316071,161.614594 445.123596,160.531952 
	C444.663696,157.945221 444.859039,155.241959 444.790710,151.654999 
M423.325867,43.488285 
	C422.186523,42.710415 421.047180,41.932545 419.907837,41.154682 
	C421.038574,40.362114 422.087036,39.378681 423.328644,38.843208 
	C424.174622,38.478371 425.462250,39.059349 426.242554,38.640373 
	C427.209808,38.121021 428.162872,37.106121 428.494873,36.098610 
	C428.631927,35.682716 427.255829,34.441586 426.363525,34.079292 
	C424.336731,33.256336 422.183258,32.745384 420.081268,32.107632 
	C422.193848,31.478170 424.373444,31.006668 426.389923,30.150761 
	C427.358215,29.739735 428.316528,28.712126 428.674042,27.740915 
	C428.821259,27.341070 427.424194,25.802004 426.645691,25.733475 
	C423.680023,25.472414 420.669678,25.457397 417.699860,25.675264 
	C416.888947,25.734753 415.513336,26.914040 415.496063,27.606836 
	C415.328705,34.322857 415.395569,41.044716 415.395569,48.129890 
	C418.810822,48.129890 421.640350,48.402107 424.380310,48.024548 
	C425.944214,47.809052 427.362213,46.534363 428.845886,45.736607 
	C427.297821,44.988995 425.749756,44.241379 423.325867,43.488285 
M550.455444,151.782715 
	C550.455444,157.171738 550.455444,162.560745 550.455444,168.173553 
	C554.549377,168.173553 557.865906,168.326111 561.152344,168.078888 
	C562.115173,168.006470 562.992432,166.797958 563.908936,166.110168 
	C562.968872,165.276947 562.135437,163.951996 561.065063,163.720078 
	C559.233337,163.323196 557.253357,163.610535 555.486084,163.610535 
	C553.866028,157.895462 557.554749,159.208572 560.084045,158.728973 
	C561.399963,158.479462 562.532166,157.261154 563.747375,156.480453 
	C563.074219,155.704407 562.548767,154.595154 561.698669,154.218140 
	C559.593567,153.284576 557.339966,152.685944 555.145996,151.952713 
	C557.330322,151.392670 559.562317,150.965714 561.675964,150.208344 
	C562.544983,149.896912 563.882935,148.625778 563.745239,148.223816 
	C563.411133,147.248871 562.384583,145.878998 561.551575,145.817001 
	C557.995972,145.552383 554.409485,145.704376 550.475708,145.704376 
	C550.475708,147.906967 550.475708,149.385101 550.455444,151.782715 
M256.792999,32.959709 
	C255.284241,37.784275 253.775482,42.608841 252.266724,47.433411 
	C252.667084,47.801373 253.067444,48.169338 253.467819,48.537304 
	C254.784073,47.773350 256.490143,47.307430 257.344360,46.190216 
	C260.032227,42.674904 262.900940,42.647892 265.707062,46.095329 
	C266.629913,47.229088 268.390594,47.680885 269.768127,48.444534 
	C270.110229,48.008999 270.452332,47.573467 270.794403,47.137932 
	C268.885834,41.353230 267.145416,35.503983 264.965179,29.823538 
	C264.318909,28.139650 262.434448,26.930965 261.117371,25.504526 
	C260.000458,26.952007 258.813812,28.352791 257.799011,29.868624 
	C257.356781,30.529144 257.267151,31.425699 256.792999,32.959709 
M507.840210,161.896255 
	C507.413483,163.876923 506.986725,165.857590 506.559998,167.838242 
	C506.922821,168.102921 507.285645,168.367599 507.648468,168.632278 
	C508.867371,167.865829 510.442596,167.362793 511.239716,166.284515 
	C513.831177,162.779053 516.993774,162.688065 519.623657,166.017105 
	C520.542725,167.180542 522.239990,167.729218 523.581909,168.558655 
	C523.968201,168.139755 524.354431,167.720840 524.740723,167.301941 
	C522.673340,161.051910 520.721863,154.759048 518.441101,148.587875 
	C517.983887,147.350739 516.224243,145.753555 515.154968,145.817749 
	C514.058777,145.883591 512.627808,147.610962 512.121521,148.913589 
	C510.565765,152.916031 509.382660,157.063309 507.840210,161.896255 
M444.266846,26.119865 
	C438.053802,23.624331 433.402618,24.758009 432.535645,29.744843 
	C431.759674,34.208076 432.008972,38.976101 432.589325,43.509346 
	C433.070862,47.270576 436.517914,48.756920 439.782227,47.936859 
	C442.334137,47.295769 444.611115,45.172352 446.698395,43.350281 
	C447.202454,42.910267 446.473816,41.058167 446.312042,39.855415 
	C445.108032,40.100868 443.811768,40.144104 442.722473,40.641037 
	C441.235260,41.319496 439.905670,42.343422 438.508484,43.219231 
	C437.797577,41.505215 436.896393,39.839916 436.440857,38.060520 
	C436.122772,36.818066 436.181183,35.361065 436.494751,34.105602 
	C436.869171,32.606518 437.695251,31.220236 438.325714,29.785093 
	C439.700409,30.432112 441.037872,31.182613 442.460968,31.695204 
	C443.725189,32.150574 445.084503,32.342003 446.401855,32.649929 
	C446.459412,31.419157 446.754486,30.135761 446.497314,28.974691 
	C446.301117,28.089085 445.404877,27.358553 444.266846,26.119865 
M458.775513,38.411949 
	C458.768250,40.745190 458.561432,43.103313 458.847778,45.399960 
	C458.969666,46.377827 460.123077,47.227100 460.807739,48.134796 
	C461.623779,47.306698 462.937622,46.589664 463.152344,45.627411 
	C463.600952,43.616589 463.469604,41.476379 463.574585,39.425549 
	C465.804199,39.129372 467.922363,39.474792 468.963806,38.574562 
	C470.920654,36.883038 473.159393,34.625881 473.553894,32.309761 
	C473.852325,30.557482 471.947540,27.401587 470.190399,26.507883 
	C463.077972,22.890446 458.731812,25.732676 458.737915,33.462772 
	C458.738983,34.795998 458.751190,36.129219 458.775513,38.411949 
M347.104309,156.515198 
	C347.115417,159.332764 346.932129,162.171234 347.231476,164.957840 
	C347.354645,166.104370 348.516663,167.139297 349.206146,168.225006 
	C350.057251,167.100723 351.328522,166.085312 351.655029,164.825104 
	C352.081268,163.180023 351.759399,161.341110 351.759399,159.554199 
	C354.064423,159.268112 356.148804,159.623032 357.220398,158.743698 
	C359.213989,157.107849 361.635223,154.897964 361.955261,152.652878 
	C362.227478,150.743149 360.306000,147.408417 358.469788,146.506531 
	C351.234436,142.952744 347.103760,145.745163 347.103394,153.563126 
	C347.103363,154.226181 347.100250,154.889221 347.104309,156.515198 
M428.261597,159.843414 
	C429.304047,159.498901 430.331665,159.096939 431.392212,158.822327 
	C433.364594,158.311630 436.693787,160.109344 436.580170,156.306702 
	C436.556702,155.520340 433.334869,154.886734 431.639679,154.073181 
	C430.492798,153.522781 429.437927,152.780609 428.341888,152.124207 
	C429.488373,151.505936 430.587616,150.757614 431.798889,150.317764 
	C432.534760,150.050552 433.560333,150.512604 434.247314,150.195511 
	C435.262177,149.727051 436.091553,148.856827 436.999939,148.157700 
	C436.034973,147.340561 435.127075,145.915802 434.094543,145.818863 
	C430.841522,145.513428 427.541779,145.706284 423.903503,145.706284 
	C423.903503,153.410736 423.903503,160.625397 423.903503,167.840057 
	C424.254425,168.130905 424.605347,168.421768 424.956268,168.712616 
	C425.971252,167.707535 427.453400,166.867538 427.881836,165.655182 
	C428.406647,164.170090 428.049347,162.373245 428.261597,159.843414 
M400.391632,165.715591 
	C401.316223,166.549423 402.240814,167.383255 403.165405,168.217102 
	C403.773804,167.213409 404.991150,166.144318 404.891510,165.216675 
	C404.262299,159.359055 406.796661,154.552750 409.494141,149.733246 
	C410.086395,148.675110 410.380676,147.450180 410.793640,146.351410 
	C405.245728,143.601852 405.548248,149.931259 402.647064,150.980423 
	C398.761871,145.333649 398.761871,145.333649 396.024902,146.326767 
	C397.494232,152.598068 398.935394,158.749191 400.391632,165.715591 
M227.489136,26.795675 
	C225.974915,27.117250 223.155685,27.386574 223.140411,27.768162 
	C222.872131,34.468884 222.946472,41.183323 222.946472,48.146435 
	C225.973724,48.146435 228.323364,48.397881 230.575333,48.038025 
	C231.665436,47.863827 232.572205,46.542343 233.561981,45.740303 
	C232.687378,44.986786 231.907043,44.049358 230.908524,43.537613 
	C230.101501,43.123993 229.031570,43.223331 227.659973,43.038868 
	C227.659973,37.782146 227.659973,32.675255 227.489136,26.795675 
M455.001007,26.822206 
	C452.008209,24.089270 450.729462,25.216057 450.681519,28.800196 
	C450.610779,34.085339 450.481995,39.377071 450.697479,44.652954 
	C450.745117,45.818626 452.128693,46.929729 452.897156,48.065956 
	C453.615112,46.852398 454.897003,45.664696 454.954041,44.420837 
	C455.211029,38.815441 455.120789,33.194122 455.001007,26.822206 
z"/>
<path fill="#CBB82C" opacity="1.000000" stroke="none" 
	d="
M566.525085,71.439056 
	C571.494080,70.350067 574.287170,72.196655 576.550720,76.277390 
	C581.295044,84.830338 586.516663,93.118553 591.542236,101.515480 
	C591.986328,101.461555 592.430481,101.407631 592.874573,101.353706 
	C592.874573,97.557053 592.861572,93.760345 592.877930,89.963760 
	C592.897949,85.300591 593.149536,80.627136 592.916382,75.977417 
	C592.696228,71.584404 595.183350,71.199760 598.589355,71.140495 
	C602.234131,71.077087 604.095581,72.034836 604.024597,76.191948 
	C603.768616,91.178413 603.876343,106.171104 603.614441,121.157394 
	C603.580261,123.113403 602.453674,126.523026 601.384216,126.711380 
	C598.208069,127.270767 594.476379,128.244705 592.129944,124.157722 
	C587.488953,116.074417 582.566345,108.152779 577.758728,100.165161 
	C577.101807,99.073677 576.436646,97.987122 574.764465,97.058952 
	C574.764465,105.438545 574.521362,113.827927 574.858398,122.193939 
	C575.051086,126.976288 572.573364,127.085854 568.986694,127.134140 
	C565.234924,127.184639 563.678162,126.247772 563.760376,122.085678 
	C564.059570,106.934052 563.910583,91.773933 564.126648,76.619804 
	C564.150818,74.922821 565.424744,73.243668 566.525085,71.439056 
z"/>
<path fill="#CBB82C" opacity="1.000000" stroke="none" 
	d="
M78.788673,118.457611 
	C78.826263,107.917679 80.022713,109.189156 69.695000,109.085831 
	C62.986431,109.018715 62.992142,109.058182 62.872940,115.817436 
	C62.831856,118.147308 62.710178,120.476326 62.700565,122.806046 
	C62.688869,125.640114 61.498180,126.825821 58.495564,127.060066 
	C51.696758,127.590454 51.100239,127.139374 51.327435,120.159515 
	C51.657150,110.029785 51.371834,99.843643 52.396336,89.788284 
	C52.908928,84.757240 54.561775,78.916512 57.779835,75.287056 
	C63.775867,68.524513 72.542213,69.855576 80.239021,71.967033 
	C86.839081,73.777626 89.700058,79.654724 89.908974,86.298920 
	C90.290092,98.419945 90.321861,110.551987 90.494675,122.679497 
	C90.549713,126.541145 87.918488,127.421745 84.858116,127.439835 
	C81.740227,127.458260 78.657822,127.018806 78.475967,122.861183 
	C78.418335,121.543579 78.660240,120.212875 78.788673,118.457611 
M65.587067,83.111221 
	C64.723869,87.395950 63.766560,91.666443 63.113781,95.982994 
	C63.029984,96.537117 64.504402,97.886398 65.298126,97.920906 
	C69.716187,98.112984 74.146942,98.013115 78.821938,98.013115 
	C78.821938,94.695068 79.184525,91.869087 78.752403,89.170364 
	C77.564049,81.748810 73.302193,79.626266 65.587067,83.111221 
z"/>
<path fill="#CCB82C" opacity="1.000000" stroke="none" 
	d="
M533.182373,70.868759 
	C540.861877,70.468758 548.095398,70.655251 551.754211,78.241684 
	C553.500427,81.862328 554.505615,86.146194 554.652588,90.173233 
	C555.046875,100.974670 554.699097,111.800987 554.850586,122.614555 
	C554.913025,127.073120 551.908447,127.361954 548.871643,127.423058 
	C545.722046,127.486427 542.738708,126.918129 542.924622,122.585228 
	C543.053101,119.593643 542.896362,116.586212 543.106506,113.602737 
	C543.325684,110.492439 542.327454,109.159180 538.963562,109.025124 
	C527.236572,108.557823 527.259399,108.444153 526.946411,120.214828 
	C526.862305,123.377640 527.945251,126.973610 522.425049,127.107300 
	C516.028687,127.262222 515.643250,127.267540 515.851440,120.698547 
	C516.209595,109.397163 516.200073,98.069458 517.017395,86.801582 
	C517.772461,76.392830 522.972473,71.576721 533.182373,70.868759 
M542.747375,87.083191 
	C541.701233,82.796890 538.547668,80.884926 534.617554,81.467194 
	C532.409363,81.794350 529.333618,83.636032 528.676819,85.507240 
	C527.370911,89.228119 527.466980,93.441040 526.958496,97.660469 
	C533.064087,97.660469 538.234497,97.660469 543.945190,97.660469 
	C543.559875,94.072441 543.227295,90.976021 542.747375,87.083191 
z"/>
<path fill="#CCB92E" opacity="1.000000" stroke="none" 
	d="
M449.168243,100.998909 
	C449.152191,93.344543 449.080536,86.189194 449.169952,79.035866 
	C449.260498,71.793015 449.825439,71.406082 456.915436,71.755470 
	C462.048187,72.008408 467.219696,71.730026 472.326080,72.203873 
	C480.088074,72.924141 484.095306,76.474762 485.810791,83.391930 
	C487.648315,90.801376 485.333862,97.369911 479.666290,101.550278 
	C477.828552,102.905807 474.660217,105.638206 474.963989,106.204300 
	C477.069489,110.128174 479.296204,114.532471 482.754272,117.008575 
	C485.409851,118.910049 488.780579,119.507759 487.591309,123.520218 
	C486.369415,127.642708 483.067047,128.187042 479.147217,127.409721 
	C473.146545,126.219749 470.370239,121.844429 468.060455,116.894852 
	C466.223297,112.957970 464.437653,108.997055 462.629120,105.046814 
	C461.971558,105.188156 461.313965,105.329506 460.656403,105.470848 
	C460.483612,107.593697 460.234406,109.713730 460.156006,111.840057 
	C460.039581,114.998863 459.930237,118.165413 460.021515,121.322784 
	C460.194092,127.294243 459.555237,126.757195 452.976105,127.415970 
	C448.617432,127.852394 449.141266,124.280106 449.141632,121.468567 
	C449.142456,114.811981 449.167847,108.155403 449.168243,100.998909 
M466.428589,94.191315 
	C469.473572,93.980873 473.460297,95.054039 474.427887,91.039520 
	C474.956024,88.848457 474.149963,85.512741 472.649475,83.896873 
	C471.263794,82.404678 468.176880,82.255051 465.786774,81.993088 
	C462.830688,81.669098 459.843597,81.209175 459.986725,86.176689 
	C460.211609,93.982712 459.904449,93.991562 466.428589,94.191315 
z"/>
<path fill="#CBB82A" opacity="1.000000" stroke="none" 
	d="
M806.704590,76.264618 
	C808.403931,79.814178 810.885742,83.049850 811.070679,86.411865 
	C811.569641,95.483337 811.613831,104.653854 810.832825,113.698227 
	C810.211487,120.893158 803.722778,126.225319 795.971680,126.831177 
	C790.020325,127.296371 783.996521,127.282303 778.040222,126.912735 
	C776.613647,126.824219 774.170166,124.489746 774.152832,123.162735 
	C773.947266,107.375481 774.040771,91.582184 774.305054,75.794647 
	C774.328491,74.398766 776.045349,71.880768 777.071045,71.830482 
	C787.093201,71.339088 797.385681,69.576057 806.704590,76.264618 
M784.864746,103.487053 
	C784.865234,106.472191 784.779419,109.461166 784.912109,112.440422 
	C784.959595,113.506813 785.205078,114.990631 785.924927,115.529221 
	C789.633667,118.304260 799.213867,114.838852 799.783203,110.255135 
	C800.514160,104.370461 800.808594,98.361267 800.539795,92.439819 
	C800.171387,84.323181 797.885620,82.618393 789.685913,82.207603 
	C786.316345,82.038788 784.827637,82.932388 784.966125,86.573914 
	C785.167419,91.870583 784.923645,97.184166 784.864746,103.487053 
z"/>
<path fill="#CCB92D" opacity="1.000000" stroke="none" 
	d="
M290.114044,101.984375 
	C289.987488,105.806854 290.039154,109.152992 289.686005,112.455841 
	C288.744659,121.259720 282.502380,127.417191 274.152161,128.008575 
	C261.701050,128.890427 255.285080,125.355965 252.958359,115.410263 
	C250.504272,104.920166 250.475128,94.204720 252.926819,83.705437 
	C255.255035,73.734978 261.628174,70.170479 274.063232,71.010437 
	C282.132355,71.555473 288.626495,77.573410 289.584839,86.025841 
	C290.164032,91.134087 289.959900,96.331146 290.114044,101.984375 
M262.852051,107.220650 
	C262.895874,107.883942 262.902435,108.552177 262.989563,109.209732 
	C263.543213,113.388824 264.447235,117.168243 269.938446,117.148811 
	C275.299988,117.129829 277.826324,115.508926 278.276306,109.457718 
	C278.801758,102.392311 278.480347,95.226974 278.017487,88.138222 
	C277.716827,83.532486 274.453796,81.810783 269.972931,81.872711 
	C265.249756,81.937988 263.404694,84.840858 263.154968,88.849472 
	C262.793976,94.644455 262.904785,100.468842 262.852051,107.220650 
z"/>
<path fill="#CCB92F" opacity="1.000000" stroke="none" 
	d="
M112.579796,71.186996 
	C116.008522,71.134201 119.055450,70.769669 121.990005,71.189880 
	C129.123672,72.211372 133.722061,76.503578 135.716354,83.349319 
	C136.452728,85.877113 138.002396,89.057045 134.036591,90.589012 
	C130.271729,92.043358 125.964973,90.464890 124.649269,87.010674 
	C122.963699,82.585411 119.520233,81.229446 115.474388,82.179199 
	C113.627960,82.612656 111.402725,84.730484 110.895233,86.522240 
	C110.491768,87.946640 111.983910,90.740486 113.439087,91.679672 
	C116.183563,93.450996 119.472488,94.421104 122.596992,95.553505 
	C133.051727,99.342590 137.163544,104.984718 135.769119,113.793335 
	C134.249695,123.391594 128.107407,127.988579 116.749237,128.028107 
	C106.696121,128.063095 100.681755,123.301193 98.688576,113.664726 
	C98.180046,111.206139 97.457390,108.593391 100.840851,107.441689 
	C104.773354,106.103096 109.038826,107.476776 109.954689,110.781357 
	C111.228821,115.378632 114.015388,117.879089 118.648567,116.911301 
	C120.670120,116.489037 123.372231,114.517578 123.819603,112.755646 
	C124.243690,111.085411 122.649872,107.887451 121.017586,106.914291 
	C117.199455,104.637939 112.730812,103.489304 108.696465,101.531830 
	C98.399025,96.535515 95.629448,86.071556 102.704422,77.106689 
	C104.864662,74.369400 108.945572,73.147896 112.579796,71.186996 
z"/>
<path fill="#CCB92F" opacity="1.000000" stroke="none" 
	d="
M389.679749,121.532089 
	C383.589355,129.322922 375.510590,128.900940 367.556946,127.311554 
	C360.617401,125.924812 357.132111,120.615440 355.742218,113.936058 
	C355.210541,111.381073 354.160431,108.074074 358.031372,107.509537 
	C361.354401,107.024895 365.738068,105.616592 366.987762,110.974770 
	C368.169189,116.040276 371.584106,117.927452 376.238892,116.881714 
	C378.085358,116.466904 380.451599,114.373207 380.847198,112.646599 
	C381.222046,111.010399 379.839355,107.957817 378.333496,107.098610 
	C374.177795,104.727432 369.442932,103.399582 365.137390,101.256714 
	C356.274353,96.845573 353.637390,88.906647 357.774719,79.940781 
	C361.201508,72.514732 369.389496,69.252106 379.608154,71.240944 
	C387.058289,72.690941 393.005493,79.047974 393.229675,86.412544 
	C393.272614,87.823914 391.454681,90.450485 390.374939,90.515381 
	C387.401184,90.694130 383.339722,92.506683 381.890625,87.848175 
	C380.537781,83.498940 377.614655,81.297859 373.315613,82.110718 
	C371.267242,82.498016 368.453735,84.354240 368.000000,86.075684 
	C367.564575,87.727760 369.225189,90.798668 370.870361,91.935593 
	C373.533844,93.776268 376.925140,94.579193 380.032043,95.760078 
	C393.017639,100.695770 396.046631,108.497688 389.679749,121.532089 
z"/>
<path fill="#CBB82B" opacity="1.000000" stroke="none" 
	d="
M708.093567,72.582642 
	C714.705933,75.987450 717.571167,81.449341 717.821167,88.178055 
	C718.105408,95.826012 718.158020,103.507072 717.789795,111.148613 
	C717.325867,120.775467 710.750793,127.484070 701.937439,128.010529 
	C688.809814,128.794693 682.303040,125.015182 680.827942,113.654472 
	C679.641968,104.520103 679.512390,94.986771 680.710754,85.866539 
	C682.467102,72.499802 692.755371,67.862640 708.093567,72.582642 
M698.479614,81.903625 
	C693.805786,81.560890 691.463135,84.388206 691.262939,88.417442 
	C690.892273,95.880089 690.936340,103.387207 691.299072,110.851929 
	C691.469788,114.363800 693.327209,117.104576 697.635925,117.167366 
	C701.996521,117.230911 705.680481,115.941277 705.959473,111.242897 
	C706.419250,103.501595 706.342773,95.704735 706.020630,87.950897 
	C705.864258,84.185822 703.236389,82.050995 698.479614,81.903625 
z"/>
<path fill="#CBB82A" opacity="1.000000" stroke="none" 
	d="
M764.509644,114.156982 
	C760.394348,127.140923 746.019165,132.870850 735.061218,125.531509 
	C731.741760,123.308167 728.613342,118.568275 728.197205,114.681320 
	C727.163269,105.023926 726.799561,95.084091 727.918762,85.461464 
	C729.245789,74.052193 735.924316,70.142746 748.875061,71.011215 
	C757.849060,71.613007 764.311096,78.007408 764.777100,87.804871 
	C765.187317,96.429436 764.698547,105.096771 764.509644,114.156982 
M753.552246,89.366447 
	C751.743042,83.123451 749.650635,81.433434 744.328857,81.916840 
	C740.152527,82.296196 738.131775,84.921448 737.989685,91.053932 
	C737.839600,97.527954 737.734985,104.044319 738.347046,110.472046 
	C738.558105,112.688873 740.601929,115.899567 742.491821,116.497910 
	C744.958008,117.278694 748.987915,116.854767 750.723145,115.223732 
	C752.701904,113.363792 753.502136,109.652077 753.733521,106.661476 
	C754.155212,101.212662 753.779358,95.702148 753.552246,89.366447 
z"/>
<path fill="#CCB92E" opacity="1.000000" stroke="none" 
	d="
M214.638565,127.050873 
	C206.023407,127.056206 197.870697,126.979172 189.722366,127.133911 
	C186.530075,127.194542 185.263351,126.114700 185.319458,122.813080 
	C185.585098,107.183960 185.718643,91.552216 185.808212,75.920883 
	C185.823318,73.284805 186.698090,71.734459 189.469009,71.753052 
	C198.275558,71.812126 207.087769,71.744423 215.885757,72.060295 
	C220.184814,72.214645 218.514221,75.875061 218.704910,78.240387 
	C218.904099,80.711044 218.640030,82.997147 215.190247,82.938942 
	C210.367493,82.857567 205.532761,83.094902 200.721619,82.843010 
	C197.009293,82.648651 196.672577,84.659142 196.844513,87.493317 
	C197.001358,90.078552 196.187286,93.067650 200.541809,92.920967 
	C205.026810,92.769897 209.523651,93.010857 214.013641,92.951851 
	C216.685638,92.916740 218.928528,93.400978 218.336426,96.704765 
	C217.825058,99.558006 219.591858,103.989738 213.943115,103.861977 
	C209.454376,103.760452 204.958023,103.976372 200.470322,103.855461 
	C197.779114,103.782944 196.317398,104.613182 196.630554,107.520149 
	C196.683670,108.013351 196.638748,108.517456 196.634155,109.016472 
	C196.568588,116.132439 196.568405,116.124557 203.461533,116.140755 
	C206.954697,116.148964 210.447784,116.209930 213.940918,116.212311 
	C216.342728,116.213943 219.054321,116.061867 218.814850,119.509514 
	C218.613800,122.403984 220.659241,126.699684 214.638565,127.050873 
z"/>
<path fill="#CCB92D" opacity="1.000000" stroke="none" 
	d="
M412.601288,86.195068 
	C412.697235,88.143181 412.705231,89.646866 412.878815,91.131172 
	C413.347870,95.141533 414.841309,98.146126 419.598480,98.203354 
	C424.659790,98.264244 427.279083,96.552208 427.924042,91.601433 
	C428.566406,86.670387 428.682373,81.659096 428.812408,76.677330 
	C428.890808,73.674225 429.207275,71.281769 433.127960,71.687675 
	C436.471069,72.033775 440.435852,71.081985 439.884216,76.867065 
	C439.302612,82.966324 439.764771,89.189545 438.882141,95.228706 
	C438.021240,101.118988 434.373688,105.366150 428.723328,107.915642 
	C427.350525,108.535049 425.996582,110.587120 425.796356,112.131142 
	C425.350677,115.568321 425.592957,119.101402 425.640961,122.594223 
	C425.702148,127.046448 422.838745,127.561829 419.321747,127.671242 
	C415.555603,127.788422 414.252167,125.956451 414.412170,122.493851 
	C414.488892,120.833717 414.340057,119.161613 414.445862,117.504654 
	C414.762451,112.545555 414.363312,108.735001 408.810089,105.806427 
	C405.562378,104.093704 403.344360,98.756767 402.445526,94.659264 
	C401.143768,88.725128 401.474487,82.435783 401.073181,76.300293 
	C400.767273,71.623787 404.073792,72.014297 407.104675,71.873413 
	C410.260040,71.726738 412.236328,72.656311 412.192017,76.293800 
	C412.153687,79.441055 412.443878,82.592308 412.601288,86.195068 
z"/>
<path fill="#CCB92E" opacity="1.000000" stroke="none" 
	d="
M667.615356,71.965805 
	C673.877014,72.332275 671.286926,76.725945 671.490662,79.524689 
	C671.724792,82.742371 669.325378,82.997726 666.717896,82.936432 
	C661.280640,82.808609 655.838318,82.897751 650.086914,82.897751 
	C650.086914,86.395973 650.086914,89.294518 650.086914,92.972923 
	C655.688477,92.972923 661.129333,93.122116 666.557129,92.919006 
	C670.015198,92.789597 671.453735,93.948082 671.074341,97.512772 
	C670.747375,100.584351 671.661621,104.135658 666.535522,103.891205 
	C662.057129,103.677643 657.553772,104.019775 653.071045,103.855225 
	C649.912109,103.739273 648.990784,105.173950 649.114929,108.054443 
	C649.314514,112.684433 649.221924,117.328499 649.477295,121.954216 
	C649.775391,127.353447 645.793335,126.973000 642.424011,127.379890 
	C638.549805,127.847748 638.183716,125.411751 638.231506,122.359795 
	C638.470520,107.068169 638.709778,91.774780 638.700562,76.482178 
	C638.698059,72.310997 640.657349,71.372398 644.232727,71.483566 
	C651.871887,71.721085 659.515503,71.813026 667.615356,71.965805 
z"/>
<path fill="#CCB92F" opacity="1.000000" stroke="none" 
	d="
M298.885864,108.998726 
	C298.959137,98.015839 299.176941,87.530609 299.038940,77.050064 
	C298.983612,72.847504 300.752319,71.358696 304.680908,71.472221 
	C312.326630,71.693153 319.979340,72.014832 327.621643,71.877464 
	C331.773987,71.802818 332.231049,73.827347 332.046906,77.138840 
	C331.873901,80.249695 332.247620,83.284218 327.521912,82.965645 
	C323.380463,82.686447 319.185303,83.160309 315.050934,82.833153 
	C310.918488,82.506172 310.093140,84.270645 309.982117,88.036240 
	C309.857086,92.276779 311.633270,93.134628 315.319519,92.940659 
	C319.466370,92.722466 323.639038,93.046989 327.795593,92.942589 
	C330.875885,92.865211 332.042633,94.240189 331.737610,97.183327 
	C331.445618,100.000824 332.536530,103.677208 327.839905,103.807350 
	C323.349670,103.931778 318.845459,104.061966 314.364410,103.842422 
	C310.929718,103.674164 309.542908,104.770172 309.752533,108.348236 
	C310.024567,112.991776 309.718872,117.666931 309.917450,122.317558 
	C310.160095,127.999664 305.774231,126.988686 302.628662,127.372726 
	C299.070557,127.807137 298.775818,125.284561 298.861603,122.476997 
	C298.993683,118.154518 298.890808,113.824875 298.885864,108.998726 
z"/>
<path fill="#CCB92E" opacity="1.000000" stroke="none" 
	d="
M154.869476,109.558777 
	C154.943604,102.444084 154.646957,95.767532 155.085876,89.139709 
	C155.399384,84.405632 154.164062,82.550888 149.151718,82.841370 
	C142.821320,83.208237 142.848007,82.781837 142.778687,76.593880 
	C142.741364,73.263527 143.681992,71.774445 147.293060,71.848907 
	C155.941986,72.027260 164.602631,72.044777 173.248596,71.789749 
	C177.669724,71.659332 178.008850,74.026703 177.995758,77.443100 
	C177.982727,80.848892 177.657455,83.318153 173.225754,83.071114 
	C165.149918,82.620918 166.089920,83.018661 166.055481,90.377617 
	C166.005630,101.027306 165.747299,111.680756 165.961884,122.324852 
	C166.062103,127.295631 163.067902,126.854996 159.789932,127.114586 
	C156.147583,127.403038 154.554016,126.292824 154.773331,122.451958 
	C155.009293,118.319939 154.818176,114.163528 154.869476,109.558777 
z"/>
<path fill="#CCB92D" opacity="1.000000" stroke="none" 
	d="
M21.947048,120.855934 
	C21.995070,109.889114 21.755201,99.389259 22.226192,88.921387 
	C22.448139,83.988518 20.951832,82.576668 16.181168,82.842430 
	C10.053165,83.183807 9.974127,82.615822 9.887043,76.400543 
	C9.837147,72.839424 11.197039,71.793831 14.593179,71.854179 
	C23.247770,72.007957 31.911781,72.031395 40.563187,71.790077 
	C44.664577,71.675682 45.240730,73.738312 45.092983,77.053383 
	C44.956352,80.119095 45.458271,83.404785 40.725258,83.025047 
	C39.897678,82.958641 39.049160,83.094246 38.230549,82.984978 
	C34.379028,82.470901 32.982288,83.905449 33.062069,87.966820 
	C33.277821,98.949966 32.799088,109.948753 33.103348,120.927269 
	C33.240856,125.888908 31.438057,127.024933 26.795353,127.211266 
	C21.788334,127.412216 21.744699,124.779884 21.947048,120.855934 
z"/>
<path fill="#161616" opacity="1.000000" stroke="none" 
	d="
M570.634155,24.347626 
	C578.000916,31.663643 579.656982,36.080250 579.638428,48.298954 
	C582.058411,47.482925 584.390015,46.696705 586.721619,45.910484 
	C587.045532,46.302189 587.369446,46.693897 587.693359,47.085606 
	C584.480042,54.935204 577.606079,59.858009 571.360962,66.265739 
	C568.052490,57.883797 564.186035,50.328316 565.048523,41.607254 
	C565.492737,41.368343 565.937012,41.129429 566.381226,40.890514 
	C568.392517,43.523628 570.403870,46.156738 572.432556,48.812649 
	C574.329529,43.588272 572.079834,35.849991 566.776367,31.222679 
	C556.500000,22.256474 545.810059,23.890011 535.099060,31.218336 
	C534.761230,30.762825 534.423340,30.307314 534.085510,29.851803 
	C535.743530,27.688469 537.077881,25.139702 539.115601,23.428555 
	C547.916260,16.038359 559.426147,16.401148 570.634155,24.347626 
z"/>
<path fill="#161616" opacity="1.000000" stroke="none" 
	d="
M315.027100,160.045227 
	C317.190857,160.326187 318.928162,160.586197 321.285431,160.938995 
	C317.030670,168.762939 314.045837,176.490295 305.906494,182.577789 
	C306.197845,178.830551 306.380035,176.487396 306.632355,173.242493 
	C297.012665,176.999588 287.570862,176.856781 279.801697,170.080429 
	C275.979614,166.746796 272.767273,161.958344 270.996948,157.190384 
	C267.640778,148.151154 270.689148,138.937317 277.920197,134.535049 
	C277.327087,137.493362 276.829315,139.786331 276.410919,142.093658 
	C273.442047,158.465637 286.476105,171.521683 302.472809,168.191422 
	C303.209595,168.038025 303.895813,167.641708 305.101410,167.160721 
	C301.730927,165.489929 298.891968,164.082611 295.035889,162.171097 
	C301.991882,158.040512 308.408325,159.975296 315.027100,160.045227 
z"/>
<path fill="#CCB92E" opacity="1.000000" stroke="none" 
	d="
M507.005188,85.016724 
	C506.920685,97.809677 506.680145,110.107231 506.828735,122.400078 
	C506.881744,126.785217 504.735168,127.189804 501.254425,127.123566 
	C497.900970,127.059761 495.625092,126.946457 495.716736,122.415817 
	C496.029114,106.967979 496.045868,91.511055 495.923828,76.059586 
	C495.890045,71.784592 498.003021,71.141388 501.501434,71.130219 
	C505.011047,71.119011 507.372955,71.772316 507.026215,76.048523 
	C506.798676,78.854362 506.995789,81.694618 507.005188,85.016724 
z"/>
<path fill="#1D1D1D" opacity="1.000000" stroke="none" 
	d="
M359.999695,25.639133 
	C361.337982,27.422256 362.496002,29.098879 363.297607,30.931412 
	C364.052643,32.657467 364.432007,34.547836 365.993073,36.253311 
	C366.747894,33.574512 367.347839,30.836803 368.333313,28.245739 
	C368.731049,27.200068 370.138031,25.653570 370.792786,25.785778 
	C371.940155,26.017447 373.333649,27.177608 373.782501,28.288746 
	C374.819550,30.855896 375.352875,33.626556 376.126953,36.447529 
	C380.218292,33.752766 376.601776,25.744989 384.890381,25.672449 
	C382.982239,32.845741 381.337952,39.378696 379.425293,45.832115 
	C379.143799,46.781994 377.402100,48.117123 376.664886,47.935917 
	C375.317627,47.604759 373.731171,46.515312 373.125977,45.302338 
	C372.217834,43.482090 372.069885,41.282570 370.648865,38.921654 
	C369.891846,41.140827 369.351562,43.471600 368.289825,45.533901 
	C367.726105,46.628887 366.330322,47.750629 365.172058,47.920952 
	C364.426880,48.030533 362.931885,46.582405 362.629364,45.575230 
	C360.911469,39.855782 359.371185,34.077694 358.007294,28.263988 
	C357.838684,27.545338 359.077301,26.496536 359.999695,25.639133 
z"/>
<path fill="#222222" opacity="1.000000" stroke="none" 
	d="
M541.486267,159.916534 
	C539.819153,160.476334 538.433289,161.411636 536.496765,162.718613 
	C535.320801,161.233688 533.996338,159.561218 531.667847,156.620972 
	C531.667847,160.595093 531.884888,163.179825 531.555664,165.692978 
	C531.432495,166.633209 530.036560,167.406708 529.220886,168.256226 
	C528.480103,167.390869 527.121582,166.541580 527.098633,165.657608 
	C526.947815,159.846466 527.010620,154.025314 527.208923,148.214432 
	C527.238525,147.346146 528.237183,145.954803 528.981140,145.811584 
	C529.858521,145.642715 531.336853,146.298584 531.870972,147.070145 
	C533.536133,149.475311 534.878540,152.103943 536.700867,155.260605 
	C538.468689,152.327225 539.726440,149.818558 541.410156,147.638870 
	C542.159729,146.668457 543.767273,146.360809 544.985413,145.752350 
	C545.507935,146.836990 546.440125,147.905716 546.483032,149.008972 
	C546.682922,154.154053 546.781067,159.314423 546.576172,164.455795 
	C546.526123,165.711960 545.194946,166.917068 544.452759,168.145660 
	C543.612854,166.854599 542.520996,165.654770 542.010498,164.244461 
	C541.579468,163.053711 541.822754,161.618851 541.486267,159.916534 
z"/>
<path fill="#1D1D1D" opacity="1.000000" stroke="none" 
	d="
M292.023346,27.579357 
	C294.028137,23.883776 295.734131,25.372383 297.199036,27.574808 
	C298.918060,30.159233 300.464264,32.858597 303.216003,35.420708 
	C303.362793,33.139927 303.290436,30.814032 303.746735,28.596947 
	C303.983032,27.448744 305.156067,26.493336 305.905884,25.450829 
	C306.701965,26.467785 308.148804,27.462067 308.185150,28.505493 
	C308.375732,33.975487 308.296661,39.461227 308.090637,44.933189 
	C308.050751,45.992599 307.172394,47.728580 306.426575,47.877281 
	C305.454529,48.071079 303.825806,47.285675 303.187164,46.407242 
	C301.197876,43.671017 299.542267,40.692200 296.532990,38.079800 
	C296.532990,39.961456 296.856842,41.919685 296.435516,43.701721 
	C296.066193,45.263733 294.860443,46.627972 294.024139,48.079571 
	C293.296906,46.689976 291.998962,45.322479 291.944183,43.906857 
	C291.738922,38.604584 291.940094,33.286583 292.023346,27.579357 
z"/>
<path fill="#222222" opacity="1.000000" stroke="none" 
	d="
M459.799652,146.337921 
	C461.596893,146.632690 463.657318,146.842010 464.687836,147.982178 
	C466.492920,149.979324 467.666046,152.547638 470.383575,154.685440 
	C470.577148,152.555908 470.517517,150.358032 471.066437,148.324448 
	C471.360443,147.235352 472.702301,146.429138 473.571259,145.495285 
	C474.288513,146.418304 475.599548,147.324875 475.625641,148.267044 
	C475.781891,153.906509 475.734039,159.557709 475.516724,165.195801 
	C475.477905,166.203384 474.424530,167.872375 473.664795,167.977905 
	C472.670654,168.115997 471.123291,167.274811 470.480316,166.377426 
	C468.513275,163.632050 466.865112,160.658188 465.092896,157.773224 
	C464.683960,157.873795 464.275024,157.974350 463.866089,158.074905 
	C463.866089,160.463394 464.106018,162.887512 463.758881,165.224426 
	C463.599548,166.297119 462.287659,167.198639 461.498474,168.177795 
	C460.743805,167.145355 459.354340,166.122330 459.338867,165.078949 
	C459.247986,158.945786 459.477539,152.807892 459.799652,146.337921 
z"/>
<path fill="#1E1E1E" opacity="1.000000" stroke="none" 
	d="
M333.170776,29.358952 
	C333.982758,27.772799 334.786774,26.611090 335.590759,25.449375 
	C336.332458,26.677286 337.661285,27.881004 337.713074,29.137360 
	C337.924866,34.275444 337.855865,39.434372 337.630646,44.574242 
	C337.578522,45.763866 336.502045,46.908588 335.896912,48.073956 
	C334.702606,47.373604 333.152618,46.940750 332.384705,45.919716 
	C330.532623,43.457001 329.046204,40.719257 327.412323,38.092422 
	C326.938721,38.175404 326.465088,38.258385 325.991486,38.341362 
	C325.991486,40.534225 326.229584,42.764275 325.895264,44.904922 
	C325.716888,46.047062 324.549744,47.034779 323.828888,48.092194 
	C323.031036,47.122547 321.577026,46.174732 321.543884,45.179642 
	C321.356293,39.540901 321.440155,33.888729 321.613800,28.246737 
	C321.642456,27.315519 322.598999,25.634260 323.078949,25.651241 
	C324.215820,25.691469 325.729309,26.247883 326.368439,27.123003 
	C328.357056,29.845884 330.009796,32.814072 331.792847,35.687111 
	C332.249512,35.596390 332.706177,35.505672 333.162842,35.414955 
	C333.162842,33.537769 333.162842,31.660582 333.170776,29.358952 
z"/>
<path fill="#262626" opacity="1.000000" stroke="none" 
	d="
M277.168427,41.839035 
	C277.110657,44.025757 277.110657,45.831795 277.110657,47.637836 
	C276.662445,47.945366 276.214203,48.252895 275.765991,48.560425 
	C274.866516,47.589676 273.235291,46.652512 273.188934,45.642605 
	C272.930511,40.012547 272.875092,34.354321 273.202637,28.732080 
	C273.268280,27.605156 275.130341,26.064711 276.453125,25.660355 
	C278.106750,25.154852 280.230927,25.175663 281.840424,25.788055 
	C283.982849,26.603226 287.031403,27.871315 287.500641,29.555149 
	C288.132721,31.823242 287.534454,35.584396 285.939972,37.082600 
	C282.650818,40.173164 284.380981,41.705776 286.522186,43.869041 
	C287.364410,44.719921 287.749695,46.023018 288.343079,47.120186 
	C286.687439,47.225250 284.415955,48.057121 283.504059,47.284435 
	C281.591827,45.664196 280.428253,43.174088 278.849396,41.124264 
	C278.701752,40.932590 277.785553,41.332901 277.168427,41.839035 
z"/>
<path fill="#212121" opacity="1.000000" stroke="none" 
	d="
M397.143799,33.164497 
	C397.828094,30.283270 395.326660,26.243858 399.558258,25.751200 
	C403.623291,25.277927 408.683929,24.146008 411.353821,28.676762 
	C413.881042,32.965355 411.957458,36.638588 407.429474,39.267715 
	C409.267120,42.087170 410.923828,44.629063 412.707977,47.366436 
	C406.408844,50.116611 405.888123,43.385185 403.290863,42.086201 
	C401.677826,44.314690 400.290192,46.231785 398.902557,48.148872 
	C398.335205,45.796589 397.547791,43.470711 397.261536,41.084705 
	C396.967438,38.633247 397.162720,36.123077 397.143799,33.164497 
M406.516418,30.467592 
	C405.141022,30.245716 403.765625,30.023838 401.474762,29.654276 
	C401.994873,31.886488 402.036530,33.512474 402.797424,34.662640 
	C403.130615,35.166302 405.367249,35.141407 405.960510,34.560673 
	C406.732971,33.804581 406.730621,32.256966 406.516418,30.467592 
z"/>
<path fill="#242424" opacity="1.000000" stroke="none" 
	d="
M477.044586,31.841042 
	C477.597137,29.492912 477.963562,26.034075 478.709991,25.950031 
	C482.422638,25.531998 486.238922,25.957594 490.005035,26.257679 
	C490.264923,26.278389 490.821198,27.981319 490.526306,28.402702 
	C489.968475,29.199749 488.961761,29.811981 488.016632,30.181797 
	C486.016388,30.964483 483.935822,31.541883 481.888214,32.203468 
	C483.855347,32.815426 485.883484,33.285713 487.764984,34.096413 
	C488.774261,34.531273 489.531342,35.551418 490.402222,36.307434 
	C489.554565,37.115891 488.814362,38.408886 487.835510,38.625977 
	C486.112549,39.008095 484.243774,38.732826 482.130920,38.732826 
	C482.007935,40.279274 481.909241,41.520153 481.777222,43.180058 
	C483.664001,43.302914 485.346130,43.113331 486.808472,43.593376 
	C488.217804,44.055996 489.400024,45.210308 490.682037,46.060738 
	C489.410583,46.748726 488.136749,48.036587 486.868073,48.031494 
	C474.783142,47.982975 477.213531,49.839756 476.929840,38.759575 
	C476.874664,36.604126 476.994507,34.444195 477.044586,31.841042 
z"/>
<path fill="#202020" opacity="1.000000" stroke="none" 
	d="
M341.659973,44.413078 
	C341.689972,38.979816 341.823975,33.984898 341.711426,28.995544 
	C341.651917,26.356461 342.700409,25.407896 345.250580,25.558332 
	C347.739258,25.705137 350.269775,25.414324 352.723206,25.747625 
	C353.646332,25.873028 354.404602,27.211971 355.238007,27.997683 
	C354.350128,28.733248 353.569550,29.730324 352.551270,30.147991 
	C350.640228,30.931839 348.591705,31.380642 346.600372,31.968777 
	C348.485077,32.662891 350.422485,33.244648 352.233917,34.094891 
	C353.257477,34.575344 354.073761,35.497269 354.983429,36.220337 
	C354.003235,37.057617 353.130157,38.117626 352.007019,38.657684 
	C351.191925,39.049652 349.934906,38.482452 349.076111,38.834187 
	C348.060547,39.250141 347.261414,40.194481 346.368439,40.909771 
	C347.289856,41.775822 348.077942,42.909798 349.161896,43.449257 
	C351.107544,44.417553 355.049805,45.224239 354.992401,45.758095 
	C354.533051,50.029854 350.836975,48.094883 348.728333,47.909801 
	C346.294373,47.696171 341.780579,50.771370 341.659973,44.413078 
z"/>
<path fill="#252525" opacity="1.000000" stroke="none" 
	d="
M246.917862,33.994217 
	C248.105591,35.012886 248.872940,36.017197 249.640289,37.021507 
	C248.755951,37.599163 247.939148,38.422432 246.969299,38.689087 
	C245.883179,38.987709 244.537308,38.479393 243.528702,38.882816 
	C242.552383,39.273335 241.861053,40.376316 241.044556,41.166378 
	C241.893723,41.934826 242.717941,42.734470 243.610794,43.448277 
	C243.816467,43.612686 244.270920,43.424450 244.587906,43.497826 
	C246.557846,43.953857 249.944519,42.221432 249.665253,46.034950 
	C249.604568,46.863529 246.119995,47.741142 244.127808,48.049072 
	C241.874100,48.397427 239.525101,48.129398 236.471039,48.129398 
	C236.471039,41.138477 236.403687,34.409180 236.569550,27.685642 
	C236.587204,26.970215 237.928131,25.748508 238.726135,25.687346 
	C241.701691,25.459286 244.719482,25.470600 247.692383,25.727804 
	C248.487686,25.796612 249.179733,27.058559 249.919174,27.772762 
	C249.112289,28.588690 248.332565,29.435114 247.477264,30.196671 
	C247.289642,30.363737 246.796738,30.135302 246.506378,30.248266 
	C244.767120,30.924900 243.045990,31.648108 241.318771,32.355698 
	C243.045013,32.897087 244.771255,33.438477 246.917862,33.994217 
z"/>
<path fill="#272727" opacity="1.000000" stroke="none" 
	d="
M444.790283,152.120377 
	C444.859039,155.241959 444.663696,157.945221 445.123596,160.531952 
	C445.316071,161.614594 446.925415,163.223038 447.842773,163.191711 
	C448.866669,163.156769 450.580261,161.612228 450.693481,160.581879 
	C451.071869,157.138489 450.621765,153.604706 450.991577,150.159470 
	C451.180603,148.398178 452.242462,145.442123 453.250488,145.290466 
	C456.755432,144.763153 455.749451,147.868988 455.806061,149.814301 
	C455.912384,153.466965 456.027100,157.138092 455.781403,160.777435 
	C455.489624,165.099442 453.316650,167.930695 448.637024,168.185883 
	C443.653900,168.457611 441.163635,166.649078 440.509216,161.545883 
	C439.983185,157.444046 439.849640,153.256516 439.999329,149.123566 
	C440.048248,147.773392 441.536224,146.475357 442.366058,145.153473 
	C443.165833,146.489685 444.088196,147.771667 444.713257,149.185120 
	C445.022003,149.883301 444.782257,150.824036 444.790283,152.120377 
z"/>
<path fill="#252525" opacity="1.000000" stroke="none" 
	d="
M423.763794,43.491028 
	C425.749756,44.241379 427.297821,44.988995 428.845886,45.736603 
	C427.362213,46.534363 425.944214,47.809052 424.380310,48.024548 
	C421.640350,48.402107 418.810822,48.129890 415.395569,48.129890 
	C415.395569,41.044716 415.328705,34.322857 415.496063,27.606836 
	C415.513336,26.914040 416.888947,25.734753 417.699860,25.675264 
	C420.669678,25.457397 423.680023,25.472414 426.645691,25.733475 
	C427.424194,25.802004 428.821259,27.341070 428.674042,27.740915 
	C428.316528,28.712126 427.358215,29.739735 426.389923,30.150761 
	C424.373444,31.006668 422.193848,31.478170 420.081268,32.107628 
	C422.183258,32.745384 424.336731,33.256336 426.363525,34.079292 
	C427.255829,34.441586 428.631927,35.682716 428.494873,36.098610 
	C428.162872,37.106121 427.209808,38.121021 426.242554,38.640373 
	C425.462250,39.059349 424.174622,38.478371 423.328644,38.843208 
	C422.087036,39.378681 421.038574,40.362114 419.907837,41.154678 
	C421.047180,41.932545 422.186523,42.710415 423.763794,43.491028 
z"/>
<path fill="#242424" opacity="1.000000" stroke="none" 
	d="
M550.465576,151.322983 
	C550.475708,149.385101 550.475708,147.906967 550.475708,145.704376 
	C554.409485,145.704376 557.995972,145.552383 561.551575,145.817001 
	C562.384583,145.878998 563.411133,147.248871 563.745239,148.223816 
	C563.882935,148.625778 562.544983,149.896912 561.675964,150.208344 
	C559.562317,150.965714 557.330322,151.392670 555.145996,151.952728 
	C557.339966,152.685944 559.593567,153.284576 561.698669,154.218140 
	C562.548767,154.595154 563.074219,155.704407 563.747375,156.480453 
	C562.532166,157.261154 561.399963,158.479462 560.084045,158.728973 
	C557.554749,159.208572 553.866028,157.895462 555.486084,163.610535 
	C557.253357,163.610535 559.233337,163.323196 561.065063,163.720078 
	C562.135437,163.951996 562.968872,165.276947 563.908936,166.110168 
	C562.992432,166.797958 562.115173,168.006470 561.152344,168.078888 
	C557.865906,168.326111 554.549377,168.173553 550.455444,168.173553 
	C550.455444,162.560745 550.455444,157.171738 550.465576,151.322983 
z"/>
<path fill="#212121" opacity="1.000000" stroke="none" 
	d="
M504.847260,35.238110 
	C507.839783,37.050152 509.494995,39.436630 508.416016,43.123764 
	C507.434662,46.477425 505.053436,48.505524 501.801514,47.929817 
	C499.160217,47.462212 496.025757,46.132999 494.468719,44.129791 
	C492.606110,41.733459 492.866913,38.717010 497.868896,40.341660 
	C499.425293,41.491837 500.605133,42.263855 501.868622,42.857876 
	C502.033417,42.935356 502.628540,42.097630 503.024353,41.683826 
	C501.710724,40.760902 500.397125,39.837963 499.083527,38.915020 
	C497.751160,37.839638 495.615082,36.977879 495.260254,35.642704 
	C494.599823,33.157906 493.984009,29.718786 495.199066,27.940823 
	C496.435394,26.131727 499.986572,24.936806 502.363831,25.162390 
	C504.505524,25.365612 506.929260,27.498281 508.317078,29.433620 
	C509.856018,31.579710 508.603149,33.179192 505.290558,32.607704 
	C503.286407,31.293219 501.802429,30.294924 500.212738,29.511097 
	C500.086426,29.448818 498.671326,31.388241 498.796692,31.523319 
	C499.906311,32.718525 501.163330,33.812943 502.517914,34.728340 
	C503.129791,35.141804 504.060944,35.082779 504.847260,35.238110 
z"/>
<path fill="#242424" opacity="1.000000" stroke="none" 
	d="
M256.905182,32.587387 
	C257.267151,31.425699 257.356781,30.529144 257.799011,29.868624 
	C258.813812,28.352791 260.000458,26.952007 261.117371,25.504528 
	C262.434448,26.930965 264.318909,28.139650 264.965179,29.823538 
	C267.145416,35.503983 268.885834,41.353230 270.794403,47.137932 
	C270.452332,47.573467 270.110229,48.008999 269.768127,48.444534 
	C268.390594,47.680885 266.629913,47.229088 265.707062,46.095329 
	C262.900940,42.647892 260.032227,42.674904 257.344360,46.190216 
	C256.490143,47.307430 254.784073,47.773350 253.467819,48.537304 
	C253.067444,48.169338 252.667084,47.801373 252.266724,47.433411 
	C253.775482,42.608841 255.284241,37.784275 256.905182,32.587387 
z"/>
<path fill="#242424" opacity="1.000000" stroke="none" 
	d="
M377.914703,164.943069 
	C379.889893,159.192856 381.773590,153.407913 383.930084,147.726517 
	C384.290833,146.776154 385.853821,145.697205 386.827789,145.728271 
	C387.811157,145.759644 389.271423,146.909409 389.628632,147.893707 
	C391.940216,154.263306 394.007355,160.721619 396.154633,167.150864 
	C395.817719,167.591751 395.480835,168.032623 395.143921,168.473511 
	C393.754425,167.730377 391.964905,167.311600 391.050079,166.183533 
	C388.258148,162.740738 385.417175,162.866913 382.625793,166.183990 
	C381.658173,167.333878 379.108246,167.152206 377.326508,167.022461 
	C377.552887,165.958481 377.733795,165.450775 377.914703,164.943069 
z"/>
<path fill="#212121" opacity="1.000000" stroke="none" 
	d="
M507.947449,161.525269 
	C509.382660,157.063309 510.565765,152.916031 512.121521,148.913589 
	C512.627808,147.610962 514.058777,145.883591 515.154968,145.817749 
	C516.224243,145.753555 517.983887,147.350739 518.441101,148.587875 
	C520.721863,154.759048 522.673340,161.051910 524.740723,167.301941 
	C524.354431,167.720840 523.968201,168.139755 523.581909,168.558655 
	C522.239990,167.729218 520.542725,167.180542 519.623657,166.017105 
	C516.993774,162.688065 513.831177,162.779053 511.239716,166.284515 
	C510.442596,167.362793 508.867371,167.865829 507.648468,168.632278 
	C507.285645,168.367599 506.922821,168.102921 506.559998,167.838242 
	C506.986725,165.857590 507.413483,163.876923 507.947449,161.525269 
z"/>
<path fill="#242424" opacity="1.000000" stroke="none" 
	d="
M444.543457,26.339447 
	C445.404877,27.358553 446.301117,28.089085 446.497314,28.974691 
	C446.754486,30.135761 446.459412,31.419157 446.401855,32.649929 
	C445.084503,32.342003 443.725189,32.150574 442.460968,31.695204 
	C441.037872,31.182613 439.700409,30.432112 438.325714,29.785091 
	C437.695251,31.220236 436.869171,32.606518 436.494751,34.105602 
	C436.181183,35.361065 436.122772,36.818066 436.440857,38.060520 
	C436.896393,39.839916 437.797577,41.505215 438.508484,43.219231 
	C439.905670,42.343422 441.235260,41.319496 442.722473,40.641037 
	C443.811768,40.144104 445.108032,40.100868 446.312073,39.855419 
	C446.473816,41.058167 447.202454,42.910267 446.698395,43.350281 
	C444.611115,45.172352 442.334137,47.295769 439.782227,47.936859 
	C436.517914,48.756920 433.070862,47.270576 432.589325,43.509346 
	C432.008972,38.976101 431.759674,34.208076 432.535645,29.744843 
	C433.402618,24.758009 438.053802,23.624331 444.543457,26.339447 
z"/>
<path fill="#202020" opacity="1.000000" stroke="none" 
	d="
M503.944397,156.114166 
	C505.171692,164.830261 502.009552,169.074631 495.016296,168.097824 
	C490.202271,167.425446 488.594788,164.322281 488.703796,155.911804 
	C488.801147,148.398911 490.550934,145.538834 495.372223,145.012024 
	C500.495819,144.452194 503.128662,146.584732 503.563232,152.417450 
	C502.030212,152.606934 500.901276,152.556854 499.908691,152.163055 
	C498.269714,151.512817 496.718750,150.640671 495.130707,149.862045 
	C494.481049,151.626984 493.592590,153.347565 493.253876,155.170288 
	C492.959503,156.754166 492.967346,158.551697 493.434296,160.072845 
	C493.855682,161.445724 494.863129,163.220734 496.017334,163.606674 
	C496.980164,163.928619 498.529999,162.494980 499.575775,161.963028 
	C498.332001,159.965622 497.492065,158.616760 496.652161,157.267914 
	C498.259918,156.823257 499.850891,156.293671 501.482788,155.970856 
	C502.263336,155.816452 503.121429,156.054092 503.944397,156.114166 
z"/>
<path fill="#1C1C1C" opacity="1.000000" stroke="none" 
	d="
M458.766876,37.937195 
	C458.751190,36.129219 458.738983,34.795998 458.737915,33.462772 
	C458.731812,25.732676 463.077972,22.890446 470.190399,26.507883 
	C471.947540,27.401587 473.852325,30.557482 473.553894,32.309761 
	C473.159393,34.625881 470.920654,36.883038 468.963806,38.574562 
	C467.922363,39.474792 465.804199,39.129372 463.574585,39.425549 
	C463.469604,41.476379 463.600952,43.616589 463.152344,45.627411 
	C462.937622,46.589664 461.623779,47.306698 460.807739,48.134804 
	C460.123077,47.227100 458.969666,46.377827 458.847778,45.399960 
	C458.561432,43.103313 458.768250,40.745190 458.766876,37.937195 
M463.205963,31.542528 
	C462.837616,34.620174 464.572418,35.453045 467.060822,34.675076 
	C467.917938,34.407104 469.132996,32.531933 468.883057,31.948179 
	C467.756592,29.317171 465.738556,28.965969 463.205963,31.542528 
z"/>
<path fill="#222222" opacity="1.000000" stroke="none" 
	d="
M347.101440,156.033737 
	C347.100250,154.889221 347.103363,154.226181 347.103394,153.563126 
	C347.103760,145.745163 351.234436,142.952744 358.469788,146.506531 
	C360.306000,147.408417 362.227478,150.743149 361.955261,152.652878 
	C361.635223,154.897964 359.213989,157.107849 357.220398,158.743698 
	C356.148804,159.623032 354.064423,159.268112 351.759399,159.554199 
	C351.759399,161.341110 352.081268,163.180023 351.655029,164.825104 
	C351.328522,166.085312 350.057251,167.100723 349.206146,168.225006 
	C348.516663,167.139297 347.354645,166.104370 347.231476,164.957840 
	C346.932129,162.171234 347.115417,159.332764 347.101440,156.033737 
M351.678253,152.426514 
	C351.892151,155.990524 354.353668,155.153549 356.240936,154.435028 
	C356.854675,154.201370 357.454132,151.807785 357.034546,151.357224 
	C355.387939,149.589111 353.355621,148.615433 351.678253,152.426514 
z"/>
<path fill="#202020" opacity="1.000000" stroke="none" 
	d="
M566.979126,153.003632 
	C567.803894,146.247055 569.097229,145.117493 576.762573,145.217194 
	C577.926880,145.584534 578.490173,145.718567 579.053467,145.852600 
	C582.885193,150.160950 582.969666,150.961609 579.173218,152.897736 
	C578.042236,152.048676 577.692749,151.085114 577.035156,150.775146 
	C575.813538,150.199310 574.422485,149.838989 573.079224,149.755692 
	C572.692078,149.731674 571.714783,151.270782 571.890198,151.562225 
	C572.512634,152.596344 573.372070,153.669189 574.410461,154.227524 
	C575.834717,154.993347 577.504211,155.303024 579.068604,155.808197 
	C582.378784,158.336731 582.881042,161.544128 580.897461,165.004990 
	C578.785461,168.689987 575.105042,168.740219 571.698669,167.745255 
	C568.190369,166.720551 566.255066,164.147049 567.971191,160.010071 
	C569.731079,160.661087 570.779907,161.560394 571.955688,162.240051 
	C573.010254,162.849655 574.193604,163.526550 575.341492,163.566864 
	C575.950195,163.588242 577.262512,162.053513 577.112976,161.682922 
	C576.682678,160.616638 575.836121,159.507599 574.851868,158.919144 
	C572.752808,157.664124 570.463684,156.727020 568.252441,155.659653 
	C568.252441,155.659653 568.114441,155.306641 567.983032,154.891418 
	C567.560852,153.985352 567.270020,153.494492 566.979126,153.003632 
z"/>
<path fill="#1E1E1E" opacity="1.000000" stroke="none" 
	d="
M428.167511,160.277298 
	C428.049347,162.373245 428.406647,164.170090 427.881836,165.655182 
	C427.453400,166.867538 425.971252,167.707535 424.956268,168.712616 
	C424.605347,168.421768 424.254425,168.130905 423.903503,167.840057 
	C423.903503,160.625397 423.903503,153.410736 423.903503,145.706284 
	C427.541779,145.706284 430.841522,145.513428 434.094543,145.818863 
	C435.127075,145.915802 436.034973,147.340561 436.999939,148.157700 
	C436.091553,148.856827 435.262177,149.727051 434.247314,150.195511 
	C433.560333,150.512604 432.534760,150.050552 431.798889,150.317764 
	C430.587616,150.757614 429.488373,151.505936 428.341888,152.124207 
	C429.437927,152.780609 430.492798,153.522781 431.639679,154.073181 
	C433.334869,154.886734 436.556702,155.520340 436.580170,156.306702 
	C436.693787,160.109344 433.364594,158.311630 431.392212,158.822327 
	C430.331665,159.096939 429.304047,159.498901 428.167511,160.277298 
z"/>
<path fill="#262626" opacity="1.000000" stroke="none" 
	d="
M400.384094,165.307953 
	C398.935394,158.749191 397.494232,152.598068 396.024902,146.326767 
	C398.761871,145.333649 398.761871,145.333649 402.647064,150.980423 
	C405.548248,149.931259 405.245728,143.601852 410.793640,146.351410 
	C410.380676,147.450180 410.086395,148.675110 409.494141,149.733246 
	C406.796661,154.552750 404.262299,159.359055 404.891510,165.216675 
	C404.991150,166.144318 403.773804,167.213409 403.165405,168.217102 
	C402.240814,167.383255 401.316223,166.549423 400.384094,165.307953 
z"/>
<path fill="#292929" opacity="1.000000" stroke="none" 
	d="
M227.574554,27.182018 
	C227.659973,32.675255 227.659973,37.782146 227.659973,43.038868 
	C229.031570,43.223331 230.101501,43.123993 230.908524,43.537613 
	C231.907043,44.049358 232.687378,44.986786 233.561981,45.740303 
	C232.572205,46.542343 231.665436,47.863827 230.575333,48.038025 
	C228.323364,48.397881 225.973724,48.146435 222.946472,48.146435 
	C222.946472,41.183323 222.872131,34.468884 223.140411,27.768162 
	C223.155685,27.386574 225.974915,27.117250 227.574554,27.182018 
z"/>
<path fill="#191919" opacity="1.000000" stroke="none" 
	d="
M455.078339,27.200375 
	C455.120789,33.194122 455.211029,38.815441 454.954041,44.420837 
	C454.897003,45.664696 453.615112,46.852398 452.897156,48.065960 
	C452.128693,46.929729 450.745117,45.818626 450.697479,44.652954 
	C450.481995,39.377071 450.610779,34.085339 450.681519,28.800196 
	C450.729462,25.216057 452.008209,24.089270 455.078339,27.200375 
z"/>
<path fill="#1C1C1C" opacity="1.000000" stroke="none" 
	d="
M370.828217,163.177704 
	C372.144806,163.553619 373.461365,163.929535 375.089661,164.970551 
	C375.253601,166.412689 375.105804,167.189728 374.958008,167.966782 
	C372.271790,168.024841 369.585602,168.082916 366.382935,167.600571 
	C366.242798,160.018158 366.619141,152.976151 366.995453,145.934143 
	C367.981232,146.847076 369.507935,147.604111 369.826416,148.709335 
	C370.308105,150.380829 369.948090,152.294876 369.761871,154.878174 
	C369.994720,158.159561 370.411469,160.668625 370.828217,163.177704 
z"/>
<path fill="#D0D0D0" opacity="1.000000" stroke="none" 
	d="
M503.914520,155.821960 
	C503.121429,156.054092 502.263336,155.816452 501.482788,155.970856 
	C499.850891,156.293671 498.259918,156.823257 496.652161,157.267914 
	C497.492065,158.616760 498.332001,159.965622 499.575775,161.963028 
	C498.529999,162.494980 496.980164,163.928619 496.017334,163.606674 
	C494.863129,163.220734 493.855682,161.445724 493.434296,160.072845 
	C492.967346,158.551697 492.959503,156.754166 493.253876,155.170288 
	C493.592590,153.347565 494.481049,151.626984 495.130707,149.862045 
	C496.718750,150.640671 498.269714,151.512817 499.908691,152.163055 
	C500.901276,152.556854 502.030212,152.606934 503.490662,152.794434 
	C503.883850,153.694885 503.884247,154.612305 503.914520,155.821960 
z"/>
<path fill="#A2A2A2" opacity="1.000000" stroke="none" 
	d="
M366.765717,145.737839 
	C366.619141,152.976151 366.242798,160.018158 365.940735,167.523880 
	C365.523956,167.631332 364.607727,167.278351 364.604980,166.918335 
	C364.555298,160.440857 364.561859,153.961075 364.734955,147.486557 
	C364.752686,146.822647 365.908325,146.189148 366.765717,145.737839 
z"/>
<path fill="#C5C5C5" opacity="1.000000" stroke="none" 
	d="
M568.205750,156.056976 
	C570.463684,156.727020 572.752808,157.664124 574.851868,158.919144 
	C575.836121,159.507599 576.682678,160.616638 577.112976,161.682922 
	C577.262512,162.053513 575.950195,163.588242 575.341492,163.566864 
	C574.193604,163.526550 573.010254,162.849655 571.955688,162.240051 
	C570.779907,161.560394 569.731079,160.661087 568.257019,159.745987 
	C567.977722,158.574478 568.068420,157.514389 568.205750,156.056976 
z"/>
<path fill="#C5C5C5" opacity="1.000000" stroke="none" 
	d="
M579.067017,155.478058 
	C577.504211,155.303024 575.834717,154.993347 574.410461,154.227524 
	C573.372070,153.669189 572.512634,152.596344 571.890198,151.562225 
	C571.714783,151.270782 572.692078,149.731674 573.079224,149.755692 
	C574.422485,149.838989 575.813538,150.199310 577.035156,150.775146 
	C577.692749,151.085114 578.042236,152.048676 578.791138,152.951202 
	C579.056152,153.839386 579.060791,154.493652 579.067017,155.478058 
z"/>
<path fill="#C5C5C5" opacity="1.000000" stroke="none" 
	d="
M504.886688,34.847214 
	C504.060944,35.082779 503.129791,35.141804 502.517914,34.728340 
	C501.163330,33.812943 499.906311,32.718525 498.796692,31.523319 
	C498.671326,31.388241 500.086426,29.448818 500.212738,29.511097 
	C501.802429,30.294924 503.286407,31.293219 504.904907,32.562813 
	C504.983643,33.411423 504.954865,33.933868 504.886688,34.847214 
z"/>
<path fill="#A2A2A2" opacity="1.000000" stroke="none" 
	d="
M370.732513,162.747910 
	C370.411469,160.668625 369.994720,158.159561 369.762390,155.324432 
	C370.176788,157.438278 370.406799,159.878204 370.732513,162.747910 
z"/>
<path fill="#A2A2A2" opacity="1.000000" stroke="none" 
	d="
M375.263184,167.979767 
	C375.105804,167.189728 375.253601,166.412689 375.323792,165.244812 
	C375.918365,164.956741 376.590485,165.059464 377.588654,165.052643 
	C377.733795,165.450775 377.552887,165.958481 377.199829,166.723038 
	C376.541260,167.317505 376.054810,167.655121 375.263184,167.979767 
z"/>
<path fill="#C5C5C5" opacity="1.000000" stroke="none" 
	d="
M566.762573,153.158096 
	C567.270020,153.494492 567.560852,153.985352 567.837646,154.769897 
	C567.397766,154.479919 566.971924,153.896240 566.762573,153.158096 
z"/>
<path fill="#C5C5C5" opacity="1.000000" stroke="none" 
	d="
M579.035767,145.575958 
	C578.490173,145.718567 577.926880,145.584534 577.183838,145.211655 
	C577.675476,145.081650 578.346741,145.190475 579.035767,145.575958 
z"/>
<path fill="#FCFAF1" opacity="1.000000" stroke="none" 
	d="
M65.880203,82.852638 
	C73.302193,79.626266 77.564049,81.748810 78.752403,89.170364 
	C79.184525,91.869087 78.821938,94.695068 78.821938,98.013115 
	C74.146942,98.013115 69.716187,98.112984 65.298126,97.920906 
	C64.504402,97.886398 63.029984,96.537117 63.113781,95.982994 
	C63.766560,91.666443 64.723869,87.395950 65.880203,82.852638 
z"/>
<path fill="#FBFAEF" opacity="1.000000" stroke="none" 
	d="
M542.821045,87.481392 
	C543.227295,90.976021 543.559875,94.072441 543.945190,97.660469 
	C538.234497,97.660469 533.064087,97.660469 526.958496,97.660469 
	C527.466980,93.441040 527.370911,89.228119 528.676819,85.507240 
	C529.333618,83.636032 532.409363,81.794350 534.617554,81.467194 
	C538.547668,80.884926 541.701233,82.796890 542.821045,87.481392 
z"/>
<path fill="#FBFAEF" opacity="1.000000" stroke="none" 
	d="
M465.966309,94.187721 
	C459.904449,93.991562 460.211609,93.982712 459.986725,86.176689 
	C459.843597,81.209175 462.830688,81.669098 465.786774,81.993088 
	C468.176880,82.255051 471.263794,82.404678 472.649475,83.896873 
	C474.149963,85.512741 474.956024,88.848457 474.427887,91.039520 
	C473.460297,95.054039 469.473572,93.980873 465.966309,94.187721 
z"/>
<path fill="#FDFCF5" opacity="1.000000" stroke="none" 
	d="
M784.867188,102.988800 
	C784.923645,97.184166 785.167419,91.870583 784.966125,86.573914 
	C784.827637,82.932388 786.316345,82.038788 789.685913,82.207603 
	C797.885620,82.618393 800.171387,84.323181 800.539795,92.439819 
	C800.808594,98.361267 800.514160,104.370461 799.783203,110.255135 
	C799.213867,114.838852 789.633667,118.304260 785.924927,115.529221 
	C785.205078,114.990631 784.959595,113.506813 784.912109,112.440422 
	C784.779419,109.461166 784.865234,106.472191 784.867188,102.988800 
z"/>
<path fill="#FDFCF5" opacity="1.000000" stroke="none" 
	d="
M262.833191,106.750664 
	C262.904785,100.468842 262.793976,94.644455 263.154968,88.849472 
	C263.404694,84.840858 265.249756,81.937988 269.972931,81.872711 
	C274.453796,81.810783 277.716827,83.532486 278.017487,88.138222 
	C278.480347,95.226974 278.801758,102.392311 278.276306,109.457718 
	C277.826324,115.508926 275.299988,117.129829 269.938446,117.148811 
	C264.447235,117.168243 263.543213,113.388824 262.989563,109.209732 
	C262.902435,108.552177 262.895874,107.883942 262.833191,106.750664 
z"/>
<path fill="#FDFCF7" opacity="1.000000" stroke="none" 
	d="
M698.892517,81.909431 
	C703.236389,82.050995 705.864258,84.185822 706.020630,87.950897 
	C706.342773,95.704735 706.419250,103.501595 705.959473,111.242897 
	C705.680481,115.941277 701.996521,117.230911 697.635925,117.167366 
	C693.327209,117.104576 691.469788,114.363800 691.299072,110.851929 
	C690.936340,103.387207 690.892273,95.880089 691.262939,88.417442 
	C691.463135,84.388206 693.805786,81.560890 698.892517,81.909431 
z"/>
<path fill="#FDFDF8" opacity="1.000000" stroke="none" 
	d="
M753.644226,89.791908 
	C753.779358,95.702148 754.155212,101.212662 753.733521,106.661476 
	C753.502136,109.652077 752.701904,113.363792 750.723145,115.223732 
	C748.987915,116.854767 744.958008,117.278694 742.491821,116.497910 
	C740.601929,115.899567 738.558105,112.688873 738.347046,110.472046 
	C737.734985,104.044319 737.839600,97.527954 737.989685,91.053932 
	C738.131775,84.921448 740.152527,82.296196 744.328857,81.916840 
	C749.650635,81.433434 751.743042,83.123451 753.644226,89.791908 
z"/>
<path fill="#CDCDCD" opacity="1.000000" stroke="none" 
	d="
M406.789062,30.758789 
	C406.730621,32.256966 406.732971,33.804581 405.960510,34.560673 
	C405.367249,35.141407 403.130615,35.166302 402.797424,34.662640 
	C402.036530,33.512474 401.994873,31.886488 401.474762,29.654276 
	C403.765625,30.023838 405.141022,30.245716 406.789062,30.758789 
z"/>
<path fill="#FDFDFC" opacity="1.000000" stroke="none" 
	d="
M498.827759,39.189423 
	C500.397125,39.837963 501.710724,40.760902 503.024353,41.683826 
	C502.628540,42.097630 502.033417,42.935356 501.868622,42.857876 
	C500.605133,42.263855 499.425293,41.491837 498.174683,40.422493 
	C498.277252,39.867855 498.424652,39.665840 498.827759,39.189423 
z"/>
<path fill="#CDCDCD" opacity="1.000000" stroke="none" 
	d="
M463.321716,31.148451 
	C465.738556,28.965969 467.756592,29.317171 468.883057,31.948179 
	C469.132996,32.531933 467.917938,34.407104 467.060822,34.675076 
	C464.572418,35.453045 462.837616,34.620174 463.321716,31.148451 
z"/>
<path fill="#CDCDCD" opacity="1.000000" stroke="none" 
	d="
M351.693115,151.998123 
	C353.355621,148.615433 355.387939,149.589111 357.034546,151.357224 
	C357.454132,151.807785 356.854675,154.201370 356.240936,154.435028 
	C354.353668,155.153549 351.892151,155.990524 351.693115,151.998123 
z"/>
</svg>